<svg width="78" height="24" viewBox="0 0 78 24" fill="none" xmlns="http://www.w3.org/2000/svg">
<path fill-rule="evenodd" clip-rule="evenodd" d="M26.4382 0.662295H36.4738L36.4797 4.43738L34.0094 4.43324L39.8661 17.4639L45.6257 4.44566H43.0848V0.673327L51.1148 0.669192L51.103 2.82027L41.4394 24C39.1073 24.0055 37.5899 23.2121 36.7767 21.5522L28.8173 4.44566L26.4367 4.44152L26.4382 0.662295ZM12.6353 0C19.614 0 25.2707 5.34528 25.2707 11.9379C25.2707 18.5305 19.614 23.8744 12.6353 23.8744C5.65671 23.8744 0 18.5305 0 11.9379C0 5.34528 5.65671 0 12.6353 0ZM12.5971 3.90617C16.9981 3.90617 20.5653 7.5419 20.5653 12.0262C20.5653 16.5119 16.9981 20.1462 12.5971 20.1462C8.19466 20.1462 4.62742 16.5119 4.62742 12.0262C4.62742 7.5419 8.19466 3.90617 12.5971 3.90617ZM65.3647 0C72.3433 0 78 5.34528 78 11.9379C78 18.5305 72.3433 23.8744 65.3647 23.8744C58.386 23.8744 52.7293 18.5305 52.7293 11.9379C52.7293 5.34528 58.386 0 65.3647 0ZM65.3264 3.90617C69.7274 3.90617 73.2947 7.5419 73.2947 12.0262C73.2947 16.5119 69.7274 20.1462 65.3264 20.1462C60.924 20.1462 57.3568 16.5119 57.3568 12.0262C57.3568 7.5419 60.924 3.90617 65.3264 3.90617Z" fill="#4C3494"/>
</svg>
