<svg width="160" height="56" viewBox="0 0 160 56" fill="none" xmlns="http://www.w3.org/2000/svg">
<g clip-path="url(#clip0_4490_35575)">
<path d="M153.448 34.3226V29.503V19.871H138.21H128.053V15.0514H153.448V5.41935H128.053H112.815V15.0514V19.871V29.503H128.053H138.21V34.3226H112.815V43.9546H138.21H153.448V34.3226ZM157.463 31.3094V46.9677C157.463 47.2857 157.326 47.5964 157.09 47.8204C156.853 48.0444 156.526 48.1744 156.19 48.1744H139.68V50.5806H158.728C159.063 50.5806 159.39 50.4506 159.627 50.2266C159.863 50.0026 160 49.6919 160 49.3739V31.3094H157.463ZM20.32 0H1.27238C0.937143 0 0.609524 0.130065 0.373333 0.354065C0.137143 0.578065 0 0.888774 0 1.20671V19.2712H2.53714V3.6129C2.53714 3.29497 2.67429 2.98426 2.91048 2.76026C3.14667 2.53626 3.47429 2.40619 3.80952 2.40619H20.32V0ZM36.6248 56H46.781V34.3226H36.6248V56ZM45.5162 5.41935H21.3867V15.0514H36.6248V29.503H46.781V6.61884C46.781 6.3009 46.6438 5.99019 46.4076 5.76619C46.1714 5.54219 45.8438 5.41213 45.5086 5.41213L45.5162 5.41935ZM16.3124 5.41935H7.42095C7.08571 5.41935 6.7581 5.54942 6.5219 5.77342C6.28571 5.99742 6.14857 6.30813 6.14857 6.62606V42.7551C6.14857 43.073 6.28571 43.3837 6.5219 43.6077C6.7581 43.8317 7.08571 43.9618 7.42095 43.9618H31.5505V34.3298H16.3124V5.42658V5.41935ZM21.3943 29.503H31.5505V19.871H21.3943V29.503ZM23.9314 22.2772H29.0133V27.0968H23.9314V22.2772ZM51.8705 5.41935V15.0514H82.3467V19.871H62.0267H51.8705V29.503V43.9546H62.0267V29.6475L77.2648 43.9546H92.5029L76.6019 29.503H82.3391H92.4952V19.871V15.0514V5.41935H82.3391H51.8629H51.8705ZM97.5848 43.9546H107.741V5.41935H97.5848V43.9546Z" fill="#0D1113"/>
</g>
<defs>
<clipPath id="clip0_4490_35575">
<rect width="160" height="56" fill="white"/>
</clipPath>
</defs>
</svg>
