<?xml version="1.0" encoding="utf-8"?>
<!-- Generator: Adobe Illustrator 26.3.1, SVG Export Plug-In . SVG Version: 6.00 Build 0)  -->
<svg version="1.1" id="Layer_1" xmlns="http://www.w3.org/2000/svg" xmlns:xlink="http://www.w3.org/1999/xlink" x="0px" y="0px"
	 viewBox="0 0 176 176" style="enable-background:new 0 0 176 176;" xml:space="preserve">
<style type="text/css">
	.st0{fill:#010101;}
	.st1{fill:none;}
</style>
<g transform="translate(80,80)">
	<g transform="translate(360,0) scale(0.4,0.4)">
		<g transform="">
			<rect x="-934.25" y="-173.75" class="st0" width="15.5" height="15.5"/>
		</g>
	</g>
	<g transform="translate(440,0) scale(0.4,0.4)">
		<g transform="">
			<rect x="-1103.25" y="-173.75" class="st0" width="15.5" height="15.5"/>
		</g>
	</g>
	<g transform="translate(480,0) scale(0.4,0.4)">
		<g transform="">
			<rect x="-1187.75" y="-173.75" class="st0" width="15.5" height="15.5"/>
		</g>
	</g>
	<g transform="translate(520,0) scale(0.4,0.4)">
		<g transform="">
			<rect x="-1272.25" y="-173.75" class="st0" width="15.5" height="15.5"/>
		</g>
	</g>
	<g transform="translate(560,0) scale(0.4,0.4)">
		<g transform="">
			<rect x="-1356.75" y="-173.75" class="st0" width="15.5" height="15.5"/>
		</g>
	</g>
	<g transform="translate(600,0) scale(0.4,0.4)">
		<g transform="">
			<rect x="-1441.25" y="-173.75" class="st0" width="15.5" height="15.5"/>
		</g>
	</g>
	<g transform="translate(320,40) scale(0.4,0.4)">
		<g transform="">
			<rect x="-849.75" y="-258.25" class="st0" width="15.5" height="15.5"/>
		</g>
	</g>
	<g transform="translate(400,40) scale(0.4,0.4)">
		<g transform="">
			<rect x="-1018.75" y="-258.25" class="st0" width="15.5" height="15.5"/>
		</g>
	</g>
	<g transform="translate(440,40) scale(0.4,0.4)">
		<g transform="">
			<rect x="-1103.25" y="-258.25" class="st0" width="15.5" height="15.5"/>
		</g>
	</g>
	<g transform="translate(480,40) scale(0.4,0.4)">
		<g transform="">
			<rect x="-1187.75" y="-258.25" class="st0" width="15.5" height="15.5"/>
		</g>
	</g>
	<g transform="translate(600,40) scale(0.4,0.4)">
		<g transform="">
			<rect x="-1441.25" y="-258.25" class="st0" width="15.5" height="15.5"/>
		</g>
	</g>
	<g transform="translate(320,80) scale(0.4,0.4)">
		<g transform="">
			<rect x="-849.75" y="-342.75" class="st0" width="15.5" height="15.5"/>
		</g>
	</g>
	<g transform="translate(360,80) scale(0.4,0.4)">
		<g transform="">
			<rect x="-934.25" y="-342.75" class="st0" width="15.5" height="15.5"/>
		</g>
	</g>
	<g transform="translate(440,80) scale(0.4,0.4)">
		<g transform="">
			<rect x="-1103.25" y="-342.75" class="st0" width="15.5" height="15.5"/>
		</g>
	</g>
	<g transform="translate(480,80) scale(0.4,0.4)">
		<g transform="">
			<rect x="-1187.75" y="-342.75" class="st0" width="15.5" height="15.5"/>
		</g>
	</g>
	<g transform="translate(560,80) scale(0.4,0.4)">
		<g transform="">
			<rect x="-1356.75" y="-342.75" class="st0" width="15.5" height="15.5"/>
		</g>
	</g>
	<g transform="translate(640,80) scale(0.4,0.4)">
		<g transform="">
			<rect x="-1525.75" y="-342.75" class="st0" width="15.5" height="15.5"/>
		</g>
	</g>
	<g transform="translate(320,120) scale(0.4,0.4)">
		<g transform="">
			<rect x="-849.75" y="-427.25" class="st0" width="15.5" height="15.5"/>
		</g>
	</g>
	<g transform="translate(360,120) scale(0.4,0.4)">
		<g transform="">
			<rect x="-934.25" y="-427.25" class="st0" width="15.5" height="15.5"/>
		</g>
	</g>
	<g transform="translate(440,120) scale(0.4,0.4)">
		<g transform="">
			<rect x="-1103.25" y="-427.25" class="st0" width="15.5" height="15.5"/>
		</g>
	</g>
	<g transform="translate(560,120) scale(0.4,0.4)">
		<g transform="">
			<rect x="-1356.75" y="-427.25" class="st0" width="15.5" height="15.5"/>
		</g>
	</g>
	<g transform="translate(600,120) scale(0.4,0.4)">
		<g transform="">
			<rect x="-1441.25" y="-427.25" class="st0" width="15.5" height="15.5"/>
		</g>
	</g>
	<g transform="translate(640,120) scale(0.4,0.4)">
		<g transform="">
			<rect x="-1525.75" y="-427.25" class="st0" width="15.5" height="15.5"/>
		</g>
	</g>
	<g transform="translate(360,160) scale(0.4,0.4)">
		<g transform="">
			<rect x="-934.25" y="-511.75" class="st0" width="15.5" height="15.5"/>
		</g>
	</g>
	<g transform="translate(400,160) scale(0.4,0.4)">
		<g transform="">
			<rect x="-1018.75" y="-511.75" class="st0" width="15.5" height="15.5"/>
		</g>
	</g>
	<g transform="translate(480,160) scale(0.4,0.4)">
		<g transform="">
			<rect x="-1187.75" y="-511.75" class="st0" width="15.5" height="15.5"/>
		</g>
	</g>
	<g transform="translate(520,160) scale(0.4,0.4)">
		<g transform="">
			<rect x="-1272.25" y="-511.75" class="st0" width="15.5" height="15.5"/>
		</g>
	</g>
	<g transform="translate(560,160) scale(0.4,0.4)">
		<g transform="">
			<rect x="-1356.75" y="-511.75" class="st0" width="15.5" height="15.5"/>
		</g>
	</g>
	<g transform="translate(600,160) scale(0.4,0.4)">
		<g transform="">
			<rect x="-1441.25" y="-511.75" class="st0" width="15.5" height="15.5"/>
		</g>
	</g>
	<g transform="translate(440,200) scale(0.4,0.4)">
		<g transform="">
			<rect x="-1103.25" y="-596.25" class="st0" width="15.5" height="15.5"/>
		</g>
	</g>
	<g transform="translate(520,200) scale(0.4,0.4)">
		<g transform="">
			<rect x="-1272.25" y="-596.25" class="st0" width="15.5" height="15.5"/>
		</g>
	</g>
	<g transform="translate(560,200) scale(0.4,0.4)">
		<g transform="">
			<rect x="-1356.75" y="-596.25" class="st0" width="15.5" height="15.5"/>
		</g>
	</g>
	<g transform="translate(320,240) scale(0.4,0.4)">
		<g transform="">
			<rect x="-849.75" y="-680.75" class="st0" width="15.5" height="15.5"/>
		</g>
	</g>
	<g transform="translate(400,240) scale(0.4,0.4)">
		<g transform="">
			<rect x="-1018.75" y="-680.75" class="st0" width="15.5" height="15.5"/>
		</g>
	</g>
	<g transform="translate(480,240) scale(0.4,0.4)">
		<g transform="">
			<rect x="-1187.75" y="-680.75" class="st0" width="15.5" height="15.5"/>
		</g>
	</g>
	<g transform="translate(560,240) scale(0.4,0.4)">
		<g transform="">
			<rect x="-1356.75" y="-680.75" class="st0" width="15.5" height="15.5"/>
		</g>
	</g>
	<g transform="translate(640,240) scale(0.4,0.4)">
		<g transform="">
			<rect x="-1525.75" y="-680.75" class="st0" width="15.5" height="15.5"/>
		</g>
	</g>
	<g transform="translate(320,280) scale(0.4,0.4)">
		<g transform="">
			<rect x="-849.75" y="-765.25" class="st0" width="15.5" height="15.5"/>
		</g>
	</g>
	<g transform="translate(360,280) scale(0.4,0.4)">
		<g transform="">
			<rect x="-934.25" y="-765.25" class="st0" width="15.5" height="15.5"/>
		</g>
	</g>
	<g transform="translate(440,280) scale(0.4,0.4)">
		<g transform="">
			<rect x="-1103.25" y="-765.25" class="st0" width="15.5" height="15.5"/>
		</g>
	</g>
	<g transform="translate(480,280) scale(0.4,0.4)">
		<g transform="">
			<rect x="-1187.75" y="-765.25" class="st0" width="15.5" height="15.5"/>
		</g>
	</g>
	<g transform="translate(520,280) scale(0.4,0.4)">
		<g transform="">
			<rect x="-1272.25" y="-765.25" class="st0" width="15.5" height="15.5"/>
		</g>
	</g>
	<g transform="translate(640,280) scale(0.4,0.4)">
		<g transform="">
			<rect x="-1525.75" y="-765.25" class="st0" width="15.5" height="15.5"/>
		</g>
	</g>
	<g transform="translate(0,320) scale(0.4,0.4)">
		<g transform="">
			<rect x="-173.75" y="-849.75" class="st0" width="15.5" height="15.5"/>
		</g>
	</g>
	<g transform="translate(240,320) scale(0.4,0.4)">
		<g transform="">
			<rect x="-680.75" y="-849.75" class="st0" width="15.5" height="15.5"/>
		</g>
	</g>
	<g transform="translate(320,320) scale(0.4,0.4)">
		<g transform="">
			<rect x="-849.75" y="-849.75" class="st0" width="15.5" height="15.5"/>
		</g>
	</g>
	<g transform="translate(360,320) scale(0.4,0.4)">
		<g transform="">
			<rect x="-934.25" y="-849.75" class="st0" width="15.5" height="15.5"/>
		</g>
	</g>
	<g transform="translate(400,320) scale(0.4,0.4)">
		<g transform="">
			<rect x="-1018.75" y="-849.75" class="st0" width="15.5" height="15.5"/>
		</g>
	</g>
	<g transform="translate(560,320) scale(0.4,0.4)">
		<g transform="">
			<rect x="-1356.75" y="-849.75" class="st0" width="15.5" height="15.5"/>
		</g>
	</g>
	<g transform="translate(600,320) scale(0.4,0.4)">
		<g transform="">
			<rect x="-1441.25" y="-849.75" class="st0" width="15.5" height="15.5"/>
		</g>
	</g>
	<g transform="translate(680,320) scale(0.4,0.4)">
		<g transform="">
			<rect x="-1610.25" y="-849.75" class="st0" width="15.5" height="15.5"/>
		</g>
	</g>
	<g transform="translate(720,320) scale(0.4,0.4)">
		<g transform="">
			<rect x="-1694.75" y="-849.75" class="st0" width="15.5" height="15.5"/>
		</g>
	</g>
	<g transform="translate(840,320) scale(0.4,0.4)">
		<g transform="">
			<rect x="-1948.25" y="-849.75" class="st0" width="15.5" height="15.5"/>
		</g>
	</g>
	<g transform="translate(880,320) scale(0.4,0.4)">
		<g transform="">
			<rect x="-2032.75" y="-849.75" class="st0" width="15.5" height="15.5"/>
		</g>
	</g>
	<g transform="translate(920,320) scale(0.4,0.4)">
		<g transform="">
			<rect x="-2117.25" y="-849.75" class="st0" width="15.5" height="15.5"/>
		</g>
	</g>
	<g transform="translate(0,360) scale(0.4,0.4)">
		<g transform="">
			<rect x="-173.75" y="-934.25" class="st0" width="15.5" height="15.5"/>
		</g>
	</g>
	<g transform="translate(40,360) scale(0.4,0.4)">
		<g transform="">
			<rect x="-258.25" y="-934.25" class="st0" width="15.5" height="15.5"/>
		</g>
	</g>
	<g transform="translate(80,360) scale(0.4,0.4)">
		<g transform="">
			<rect x="-342.75" y="-934.25" class="st0" width="15.5" height="15.5"/>
		</g>
	</g>
	<g transform="translate(200,360) scale(0.4,0.4)">
		<g transform="">
			<rect x="-596.25" y="-934.25" class="st0" width="15.5" height="15.5"/>
		</g>
	</g>
	<g transform="translate(280,360) scale(0.4,0.4)">
		<g transform="">
			<rect x="-765.25" y="-934.25" class="st0" width="15.5" height="15.5"/>
		</g>
	</g>
	<g transform="translate(360,360) scale(0.4,0.4)">
		<g transform="">
			<rect x="-934.25" y="-934.25" class="st0" width="15.5" height="15.5"/>
		</g>
	</g>
	<g transform="translate(400,360) scale(0.4,0.4)">
		<g transform="">
			<rect x="-1018.75" y="-934.25" class="st0" width="15.5" height="15.5"/>
		</g>
	</g>
	<g transform="translate(440,360) scale(0.4,0.4)">
		<g transform="">
			<rect x="-1103.25" y="-934.25" class="st0" width="15.5" height="15.5"/>
		</g>
	</g>
	<g transform="translate(480,360) scale(0.4,0.4)">
		<g transform="">
			<rect x="-1187.75" y="-934.25" class="st0" width="15.5" height="15.5"/>
		</g>
	</g>
	<g transform="translate(560,360) scale(0.4,0.4)">
		<g transform="">
			<rect x="-1356.75" y="-934.25" class="st0" width="15.5" height="15.5"/>
		</g>
	</g>
	<g transform="translate(600,360) scale(0.4,0.4)">
		<g transform="">
			<rect x="-1441.25" y="-934.25" class="st0" width="15.5" height="15.5"/>
		</g>
	</g>
	<g transform="translate(760,360) scale(0.4,0.4)">
		<g transform="">
			<rect x="-1779.25" y="-934.25" class="st0" width="15.5" height="15.5"/>
		</g>
	</g>
	<g transform="translate(800,360) scale(0.4,0.4)">
		<g transform="">
			<rect x="-1863.75" y="-934.25" class="st0" width="15.5" height="15.5"/>
		</g>
	</g>
	<g transform="translate(840,360) scale(0.4,0.4)">
		<g transform="">
			<rect x="-1948.25" y="-934.25" class="st0" width="15.5" height="15.5"/>
		</g>
	</g>
	<g transform="translate(880,360) scale(0.4,0.4)">
		<g transform="">
			<rect x="-2032.75" y="-934.25" class="st0" width="15.5" height="15.5"/>
		</g>
	</g>
	<g transform="translate(920,360) scale(0.4,0.4)">
		<g transform="">
			<rect x="-2117.25" y="-934.25" class="st0" width="15.5" height="15.5"/>
		</g>
	</g>
	<g transform="translate(120,400) scale(0.4,0.4)">
		<g transform="">
			<rect x="-427.25" y="-1018.75" class="st0" width="15.5" height="15.5"/>
		</g>
	</g>
	<g transform="translate(200,400) scale(0.4,0.4)">
		<g transform="">
			<rect x="-596.25" y="-1018.75" class="st0" width="15.5" height="15.5"/>
		</g>
	</g>
	<g transform="translate(240,400) scale(0.4,0.4)">
		<g transform="">
			<rect x="-680.75" y="-1018.75" class="st0" width="15.5" height="15.5"/>
		</g>
	</g>
	<g transform="translate(320,400) scale(0.4,0.4)">
		<g transform="">
			<rect x="-849.75" y="-1018.75" class="st0" width="15.5" height="15.5"/>
		</g>
	</g>
	<g transform="translate(360,400) scale(0.4,0.4)">
		<g transform="">
			<rect x="-934.25" y="-1018.75" class="st0" width="15.5" height="15.5"/>
		</g>
	</g>
	<g transform="translate(400,400) scale(0.4,0.4)">
		<g transform="">
			<rect x="-1018.75" y="-1018.75" class="st0" width="15.5" height="15.5"/>
		</g>
	</g>
	<g transform="translate(480,400) scale(0.4,0.4)">
		<g transform="">
			<rect x="-1187.75" y="-1018.75" class="st0" width="15.5" height="15.5"/>
		</g>
	</g>
	<g transform="translate(600,400) scale(0.4,0.4)">
		<g transform="">
			<rect x="-1441.25" y="-1018.75" class="st0" width="15.5" height="15.5"/>
		</g>
	</g>
	<g transform="translate(640,400) scale(0.4,0.4)">
		<g transform="">
			<rect x="-1525.75" y="-1018.75" class="st0" width="15.5" height="15.5"/>
		</g>
	</g>
	<g transform="translate(720,400) scale(0.4,0.4)">
		<g transform="">
			<rect x="-1694.75" y="-1018.75" class="st0" width="15.5" height="15.5"/>
		</g>
	</g>
	<g transform="translate(760,400) scale(0.4,0.4)">
		<g transform="">
			<rect x="-1779.25" y="-1018.75" class="st0" width="15.5" height="15.5"/>
		</g>
	</g>
	<g transform="translate(840,400) scale(0.4,0.4)">
		<g transform="">
			<rect x="-1948.25" y="-1018.75" class="st0" width="15.5" height="15.5"/>
		</g>
	</g>
	<g transform="translate(920,400) scale(0.4,0.4)">
		<g transform="">
			<rect x="-2117.25" y="-1018.75" class="st0" width="15.5" height="15.5"/>
		</g>
	</g>
	<g transform="translate(960,400) scale(0.4,0.4)">
		<g transform="">
			<rect x="-2201.75" y="-1018.75" class="st0" width="15.5" height="15.5"/>
		</g>
	</g>
	<g transform="translate(40,440) scale(0.4,0.4)">
		<g transform="">
			<rect x="-258.25" y="-1103.25" class="st0" width="15.5" height="15.5"/>
		</g>
	</g>
	<g transform="translate(80,440) scale(0.4,0.4)">
		<g transform="">
			<rect x="-342.75" y="-1103.25" class="st0" width="15.5" height="15.5"/>
		</g>
	</g>
	<g transform="translate(160,440) scale(0.4,0.4)">
		<g transform="">
			<rect x="-511.75" y="-1103.25" class="st0" width="15.5" height="15.5"/>
		</g>
	</g>
	<g transform="translate(280,440) scale(0.4,0.4)">
		<g transform="">
			<rect x="-765.25" y="-1103.25" class="st0" width="15.5" height="15.5"/>
		</g>
	</g>
	<g transform="translate(360,440) scale(0.4,0.4)">
		<g transform="">
			<rect x="-934.25" y="-1103.25" class="st0" width="15.5" height="15.5"/>
		</g>
	</g>
	<g transform="translate(480,440) scale(0.4,0.4)">
		<g transform="">
			<rect x="-1187.75" y="-1103.25" class="st0" width="15.5" height="15.5"/>
		</g>
	</g>
	<g transform="translate(560,440) scale(0.4,0.4)">
		<g transform="">
			<rect x="-1356.75" y="-1103.25" class="st0" width="15.5" height="15.5"/>
		</g>
	</g>
	<g transform="translate(680,440) scale(0.4,0.4)">
		<g transform="">
			<rect x="-1610.25" y="-1103.25" class="st0" width="15.5" height="15.5"/>
		</g>
	</g>
	<g transform="translate(720,440) scale(0.4,0.4)">
		<g transform="">
			<rect x="-1694.75" y="-1103.25" class="st0" width="15.5" height="15.5"/>
		</g>
	</g>
	<g transform="translate(760,440) scale(0.4,0.4)">
		<g transform="">
			<rect x="-1779.25" y="-1103.25" class="st0" width="15.5" height="15.5"/>
		</g>
	</g>
	<g transform="translate(800,440) scale(0.4,0.4)">
		<g transform="">
			<rect x="-1863.75" y="-1103.25" class="st0" width="15.5" height="15.5"/>
		</g>
	</g>
	<g transform="translate(840,440) scale(0.4,0.4)">
		<g transform="">
			<rect x="-1948.25" y="-1103.25" class="st0" width="15.5" height="15.5"/>
		</g>
	</g>
	<g transform="translate(960,440) scale(0.4,0.4)">
		<g transform="">
			<rect x="-2201.75" y="-1103.25" class="st0" width="15.5" height="15.5"/>
		</g>
	</g>
	<g transform="translate(0,480) scale(0.4,0.4)">
		<g transform="">
			<rect x="-173.75" y="-1187.75" class="st0" width="15.5" height="15.5"/>
		</g>
	</g>
	<g transform="translate(40,480) scale(0.4,0.4)">
		<g transform="">
			<rect x="-258.25" y="-1187.75" class="st0" width="15.5" height="15.5"/>
		</g>
	</g>
	<g transform="translate(80,480) scale(0.4,0.4)">
		<g transform="">
			<rect x="-342.75" y="-1187.75" class="st0" width="15.5" height="15.5"/>
		</g>
	</g>
	<g transform="translate(160,480) scale(0.4,0.4)">
		<g transform="">
			<rect x="-511.75" y="-1187.75" class="st0" width="15.5" height="15.5"/>
		</g>
	</g>
	<g transform="translate(200,480) scale(0.4,0.4)">
		<g transform="">
			<rect x="-596.25" y="-1187.75" class="st0" width="15.5" height="15.5"/>
		</g>
	</g>
	<g transform="translate(240,480) scale(0.4,0.4)">
		<g transform="">
			<rect x="-680.75" y="-1187.75" class="st0" width="15.5" height="15.5"/>
		</g>
	</g>
	<g transform="translate(520,480) scale(0.4,0.4)">
		<g transform="">
			<rect x="-1272.25" y="-1187.75" class="st0" width="15.5" height="15.5"/>
		</g>
	</g>
	<g transform="translate(560,480) scale(0.4,0.4)">
		<g transform="">
			<rect x="-1356.75" y="-1187.75" class="st0" width="15.5" height="15.5"/>
		</g>
	</g>
	<g transform="translate(640,480) scale(0.4,0.4)">
		<g transform="">
			<rect x="-1525.75" y="-1187.75" class="st0" width="15.5" height="15.5"/>
		</g>
	</g>
	<g transform="translate(720,480) scale(0.4,0.4)">
		<g transform="">
			<rect x="-1694.75" y="-1187.75" class="st0" width="15.5" height="15.5"/>
		</g>
	</g>
	<g transform="translate(760,480) scale(0.4,0.4)">
		<g transform="">
			<rect x="-1779.25" y="-1187.75" class="st0" width="15.5" height="15.5"/>
		</g>
	</g>
	<g transform="translate(960,480) scale(0.4,0.4)">
		<g transform="">
			<rect x="-2201.75" y="-1187.75" class="st0" width="15.5" height="15.5"/>
		</g>
	</g>
	<g transform="translate(0,520) scale(0.4,0.4)">
		<g transform="">
			<rect x="-173.75" y="-1272.25" class="st0" width="15.5" height="15.5"/>
		</g>
	</g>
	<g transform="translate(40,520) scale(0.4,0.4)">
		<g transform="">
			<rect x="-258.25" y="-1272.25" class="st0" width="15.5" height="15.5"/>
		</g>
	</g>
	<g transform="translate(120,520) scale(0.4,0.4)">
		<g transform="">
			<rect x="-427.25" y="-1272.25" class="st0" width="15.5" height="15.5"/>
		</g>
	</g>
	<g transform="translate(160,520) scale(0.4,0.4)">
		<g transform="">
			<rect x="-511.75" y="-1272.25" class="st0" width="15.5" height="15.5"/>
		</g>
	</g>
	<g transform="translate(280,520) scale(0.4,0.4)">
		<g transform="">
			<rect x="-765.25" y="-1272.25" class="st0" width="15.5" height="15.5"/>
		</g>
	</g>
	<g transform="translate(360,520) scale(0.4,0.4)">
		<g transform="">
			<rect x="-934.25" y="-1272.25" class="st0" width="15.5" height="15.5"/>
		</g>
	</g>
	<g transform="translate(400,520) scale(0.4,0.4)">
		<g transform="">
			<rect x="-1018.75" y="-1272.25" class="st0" width="15.5" height="15.5"/>
		</g>
	</g>
	<g transform="translate(480,520) scale(0.4,0.4)">
		<g transform="">
			<rect x="-1187.75" y="-1272.25" class="st0" width="15.5" height="15.5"/>
		</g>
	</g>
	<g transform="translate(520,520) scale(0.4,0.4)">
		<g transform="">
			<rect x="-1272.25" y="-1272.25" class="st0" width="15.5" height="15.5"/>
		</g>
	</g>
	<g transform="translate(560,520) scale(0.4,0.4)">
		<g transform="">
			<rect x="-1356.75" y="-1272.25" class="st0" width="15.5" height="15.5"/>
		</g>
	</g>
	<g transform="translate(600,520) scale(0.4,0.4)">
		<g transform="">
			<rect x="-1441.25" y="-1272.25" class="st0" width="15.5" height="15.5"/>
		</g>
	</g>
	<g transform="translate(640,520) scale(0.4,0.4)">
		<g transform="">
			<rect x="-1525.75" y="-1272.25" class="st0" width="15.5" height="15.5"/>
		</g>
	</g>
	<g transform="translate(760,520) scale(0.4,0.4)">
		<g transform="">
			<rect x="-1779.25" y="-1272.25" class="st0" width="15.5" height="15.5"/>
		</g>
	</g>
	<g transform="translate(920,520) scale(0.4,0.4)">
		<g transform="">
			<rect x="-2117.25" y="-1272.25" class="st0" width="15.5" height="15.5"/>
		</g>
	</g>
	<g transform="translate(0,560) scale(0.4,0.4)">
		<g transform="">
			<rect x="-173.75" y="-1356.75" class="st0" width="15.5" height="15.5"/>
		</g>
	</g>
	<g transform="translate(80,560) scale(0.4,0.4)">
		<g transform="">
			<rect x="-342.75" y="-1356.75" class="st0" width="15.5" height="15.5"/>
		</g>
	</g>
	<g transform="translate(160,560) scale(0.4,0.4)">
		<g transform="">
			<rect x="-511.75" y="-1356.75" class="st0" width="15.5" height="15.5"/>
		</g>
	</g>
	<g transform="translate(240,560) scale(0.4,0.4)">
		<g transform="">
			<rect x="-680.75" y="-1356.75" class="st0" width="15.5" height="15.5"/>
		</g>
	</g>
	<g transform="translate(280,560) scale(0.4,0.4)">
		<g transform="">
			<rect x="-765.25" y="-1356.75" class="st0" width="15.5" height="15.5"/>
		</g>
	</g>
	<g transform="translate(320,560) scale(0.4,0.4)">
		<g transform="">
			<rect x="-849.75" y="-1356.75" class="st0" width="15.5" height="15.5"/>
		</g>
	</g>
	<g transform="translate(520,560) scale(0.4,0.4)">
		<g transform="">
			<rect x="-1272.25" y="-1356.75" class="st0" width="15.5" height="15.5"/>
		</g>
	</g>
	<g transform="translate(560,560) scale(0.4,0.4)">
		<g transform="">
			<rect x="-1356.75" y="-1356.75" class="st0" width="15.5" height="15.5"/>
		</g>
	</g>
	<g transform="translate(600,560) scale(0.4,0.4)">
		<g transform="">
			<rect x="-1441.25" y="-1356.75" class="st0" width="15.5" height="15.5"/>
		</g>
	</g>
	<g transform="translate(760,560) scale(0.4,0.4)">
		<g transform="">
			<rect x="-1779.25" y="-1356.75" class="st0" width="15.5" height="15.5"/>
		</g>
	</g>
	<g transform="translate(800,560) scale(0.4,0.4)">
		<g transform="">
			<rect x="-1863.75" y="-1356.75" class="st0" width="15.5" height="15.5"/>
		</g>
	</g>
	<g transform="translate(840,560) scale(0.4,0.4)">
		<g transform="">
			<rect x="-1948.25" y="-1356.75" class="st0" width="15.5" height="15.5"/>
		</g>
	</g>
	<g transform="translate(920,560) scale(0.4,0.4)">
		<g transform="">
			<rect x="-2117.25" y="-1356.75" class="st0" width="15.5" height="15.5"/>
		</g>
	</g>
	<g transform="translate(960,560) scale(0.4,0.4)">
		<g transform="">
			<rect x="-2201.75" y="-1356.75" class="st0" width="15.5" height="15.5"/>
		</g>
	</g>
	<g transform="translate(0,600) scale(0.4,0.4)">
		<g transform="">
			<rect x="-173.75" y="-1441.25" class="st0" width="15.5" height="15.5"/>
		</g>
	</g>
	<g transform="translate(160,600) scale(0.4,0.4)">
		<g transform="">
			<rect x="-511.75" y="-1441.25" class="st0" width="15.5" height="15.5"/>
		</g>
	</g>
	<g transform="translate(200,600) scale(0.4,0.4)">
		<g transform="">
			<rect x="-596.25" y="-1441.25" class="st0" width="15.5" height="15.5"/>
		</g>
	</g>
	<g transform="translate(360,600) scale(0.4,0.4)">
		<g transform="">
			<rect x="-934.25" y="-1441.25" class="st0" width="15.5" height="15.5"/>
		</g>
	</g>
	<g transform="translate(480,600) scale(0.4,0.4)">
		<g transform="">
			<rect x="-1187.75" y="-1441.25" class="st0" width="15.5" height="15.5"/>
		</g>
	</g>
	<g transform="translate(520,600) scale(0.4,0.4)">
		<g transform="">
			<rect x="-1272.25" y="-1441.25" class="st0" width="15.5" height="15.5"/>
		</g>
	</g>
	<g transform="translate(560,600) scale(0.4,0.4)">
		<g transform="">
			<rect x="-1356.75" y="-1441.25" class="st0" width="15.5" height="15.5"/>
		</g>
	</g>
	<g transform="translate(600,600) scale(0.4,0.4)">
		<g transform="">
			<rect x="-1441.25" y="-1441.25" class="st0" width="15.5" height="15.5"/>
		</g>
	</g>
	<g transform="translate(760,600) scale(0.4,0.4)">
		<g transform="">
			<rect x="-1779.25" y="-1441.25" class="st0" width="15.5" height="15.5"/>
		</g>
	</g>
	<g transform="translate(840,600) scale(0.4,0.4)">
		<g transform="">
			<rect x="-1948.25" y="-1441.25" class="st0" width="15.5" height="15.5"/>
		</g>
	</g>
	<g transform="translate(880,600) scale(0.4,0.4)">
		<g transform="">
			<rect x="-2032.75" y="-1441.25" class="st0" width="15.5" height="15.5"/>
		</g>
	</g>
	<g transform="translate(960,600) scale(0.4,0.4)">
		<g transform="">
			<rect x="-2201.75" y="-1441.25" class="st0" width="15.5" height="15.5"/>
		</g>
	</g>
	<g transform="translate(0,640) scale(0.4,0.4)">
		<g transform="">
			<rect x="-173.75" y="-1525.75" class="st0" width="15.5" height="15.5"/>
		</g>
	</g>
	<g transform="translate(160,640) scale(0.4,0.4)">
		<g transform="">
			<rect x="-511.75" y="-1525.75" class="st0" width="15.5" height="15.5"/>
		</g>
	</g>
	<g transform="translate(240,640) scale(0.4,0.4)">
		<g transform="">
			<rect x="-680.75" y="-1525.75" class="st0" width="15.5" height="15.5"/>
		</g>
	</g>
	<g transform="translate(320,640) scale(0.4,0.4)">
		<g transform="">
			<rect x="-849.75" y="-1525.75" class="st0" width="15.5" height="15.5"/>
		</g>
	</g>
	<g transform="translate(480,640) scale(0.4,0.4)">
		<g transform="">
			<rect x="-1187.75" y="-1525.75" class="st0" width="15.5" height="15.5"/>
		</g>
	</g>
	<g transform="translate(560,640) scale(0.4,0.4)">
		<g transform="">
			<rect x="-1356.75" y="-1525.75" class="st0" width="15.5" height="15.5"/>
		</g>
	</g>
	<g transform="translate(640,640) scale(0.4,0.4)">
		<g transform="">
			<rect x="-1525.75" y="-1525.75" class="st0" width="15.5" height="15.5"/>
		</g>
	</g>
	<g transform="translate(680,640) scale(0.4,0.4)">
		<g transform="">
			<rect x="-1610.25" y="-1525.75" class="st0" width="15.5" height="15.5"/>
		</g>
	</g>
	<g transform="translate(720,640) scale(0.4,0.4)">
		<g transform="">
			<rect x="-1694.75" y="-1525.75" class="st0" width="15.5" height="15.5"/>
		</g>
	</g>
	<g transform="translate(760,640) scale(0.4,0.4)">
		<g transform="">
			<rect x="-1779.25" y="-1525.75" class="st0" width="15.5" height="15.5"/>
		</g>
	</g>
	<g transform="translate(800,640) scale(0.4,0.4)">
		<g transform="">
			<rect x="-1863.75" y="-1525.75" class="st0" width="15.5" height="15.5"/>
		</g>
	</g>
	<g transform="translate(880,640) scale(0.4,0.4)">
		<g transform="">
			<rect x="-2032.75" y="-1525.75" class="st0" width="15.5" height="15.5"/>
		</g>
	</g>
	<g transform="translate(320,680) scale(0.4,0.4)">
		<g transform="">
			<rect x="-849.75" y="-1610.25" class="st0" width="15.5" height="15.5"/>
		</g>
	</g>
	<g transform="translate(640,680) scale(0.4,0.4)">
		<g transform="">
			<rect x="-1525.75" y="-1610.25" class="st0" width="15.5" height="15.5"/>
		</g>
	</g>
	<g transform="translate(800,680) scale(0.4,0.4)">
		<g transform="">
			<rect x="-1863.75" y="-1610.25" class="st0" width="15.5" height="15.5"/>
		</g>
	</g>
	<g transform="translate(400,720) scale(0.4,0.4)">
		<g transform="">
			<rect x="-1018.75" y="-1694.75" class="st0" width="15.5" height="15.5"/>
		</g>
	</g>
	<g transform="translate(480,720) scale(0.4,0.4)">
		<g transform="">
			<rect x="-1187.75" y="-1694.75" class="st0" width="15.5" height="15.5"/>
		</g>
	</g>
	<g transform="translate(520,720) scale(0.4,0.4)">
		<g transform="">
			<rect x="-1272.25" y="-1694.75" class="st0" width="15.5" height="15.5"/>
		</g>
	</g>
	<g transform="translate(560,720) scale(0.4,0.4)">
		<g transform="">
			<rect x="-1356.75" y="-1694.75" class="st0" width="15.5" height="15.5"/>
		</g>
	</g>
	<g transform="translate(640,720) scale(0.4,0.4)">
		<g transform="">
			<rect x="-1525.75" y="-1694.75" class="st0" width="15.5" height="15.5"/>
		</g>
	</g>
	<g transform="translate(720,720) scale(0.4,0.4)">
		<g transform="">
			<rect x="-1694.75" y="-1694.75" class="st0" width="15.5" height="15.5"/>
		</g>
	</g>
	<g transform="translate(800,720) scale(0.4,0.4)">
		<g transform="">
			<rect x="-1863.75" y="-1694.75" class="st0" width="15.5" height="15.5"/>
		</g>
	</g>
	<g transform="translate(960,720) scale(0.4,0.4)">
		<g transform="">
			<rect x="-2201.75" y="-1694.75" class="st0" width="15.5" height="15.5"/>
		</g>
	</g>
	<g transform="translate(360,760) scale(0.4,0.4)">
		<g transform="">
			<rect x="-934.25" y="-1779.25" class="st0" width="15.5" height="15.5"/>
		</g>
	</g>
	<g transform="translate(440,760) scale(0.4,0.4)">
		<g transform="">
			<rect x="-1103.25" y="-1779.25" class="st0" width="15.5" height="15.5"/>
		</g>
	</g>
	<g transform="translate(560,760) scale(0.4,0.4)">
		<g transform="">
			<rect x="-1356.75" y="-1779.25" class="st0" width="15.5" height="15.5"/>
		</g>
	</g>
	<g transform="translate(640,760) scale(0.4,0.4)">
		<g transform="">
			<rect x="-1525.75" y="-1779.25" class="st0" width="15.5" height="15.5"/>
		</g>
	</g>
	<g transform="translate(800,760) scale(0.4,0.4)">
		<g transform="">
			<rect x="-1863.75" y="-1779.25" class="st0" width="15.5" height="15.5"/>
		</g>
	</g>
	<g transform="translate(960,760) scale(0.4,0.4)">
		<g transform="">
			<rect x="-2201.75" y="-1779.25" class="st0" width="15.5" height="15.5"/>
		</g>
	</g>
	<g transform="translate(400,800) scale(0.4,0.4)">
		<g transform="">
			<rect x="-1018.75" y="-1863.75" class="st0" width="15.5" height="15.5"/>
		</g>
	</g>
	<g transform="translate(440,800) scale(0.4,0.4)">
		<g transform="">
			<rect x="-1103.25" y="-1863.75" class="st0" width="15.5" height="15.5"/>
		</g>
	</g>
	<g transform="translate(600,800) scale(0.4,0.4)">
		<g transform="">
			<rect x="-1441.25" y="-1863.75" class="st0" width="15.5" height="15.5"/>
		</g>
	</g>
	<g transform="translate(640,800) scale(0.4,0.4)">
		<g transform="">
			<rect x="-1525.75" y="-1863.75" class="st0" width="15.5" height="15.5"/>
		</g>
	</g>
	<g transform="translate(680,800) scale(0.4,0.4)">
		<g transform="">
			<rect x="-1610.25" y="-1863.75" class="st0" width="15.5" height="15.5"/>
		</g>
	</g>
	<g transform="translate(720,800) scale(0.4,0.4)">
		<g transform="">
			<rect x="-1694.75" y="-1863.75" class="st0" width="15.5" height="15.5"/>
		</g>
	</g>
	<g transform="translate(760,800) scale(0.4,0.4)">
		<g transform="">
			<rect x="-1779.25" y="-1863.75" class="st0" width="15.5" height="15.5"/>
		</g>
	</g>
	<g transform="translate(800,800) scale(0.4,0.4)">
		<g transform="">
			<rect x="-1863.75" y="-1863.75" class="st0" width="15.5" height="15.5"/>
		</g>
	</g>
	<g transform="translate(880,800) scale(0.4,0.4)">
		<g transform="">
			<rect x="-2032.75" y="-1863.75" class="st0" width="15.5" height="15.5"/>
		</g>
	</g>
	<g transform="translate(960,800) scale(0.4,0.4)">
		<g transform="">
			<rect x="-2201.75" y="-1863.75" class="st0" width="15.5" height="15.5"/>
		</g>
	</g>
	<g transform="translate(480,840) scale(0.4,0.4)">
		<g transform="">
			<rect x="-1187.75" y="-1948.25" class="st0" width="15.5" height="15.5"/>
		</g>
	</g>
	<g transform="translate(520,840) scale(0.4,0.4)">
		<g transform="">
			<rect x="-1272.25" y="-1948.25" class="st0" width="15.5" height="15.5"/>
		</g>
	</g>
	<g transform="translate(600,840) scale(0.4,0.4)">
		<g transform="">
			<rect x="-1441.25" y="-1948.25" class="st0" width="15.5" height="15.5"/>
		</g>
	</g>
	<g transform="translate(680,840) scale(0.4,0.4)">
		<g transform="">
			<rect x="-1610.25" y="-1948.25" class="st0" width="15.5" height="15.5"/>
		</g>
	</g>
	<g transform="translate(720,840) scale(0.4,0.4)">
		<g transform="">
			<rect x="-1694.75" y="-1948.25" class="st0" width="15.5" height="15.5"/>
		</g>
	</g>
	<g transform="translate(920,840) scale(0.4,0.4)">
		<g transform="">
			<rect x="-2117.25" y="-1948.25" class="st0" width="15.5" height="15.5"/>
		</g>
	</g>
	<g transform="translate(960,840) scale(0.4,0.4)">
		<g transform="">
			<rect x="-2201.75" y="-1948.25" class="st0" width="15.5" height="15.5"/>
		</g>
	</g>
	<g transform="translate(360,880) scale(0.4,0.4)">
		<g transform="">
			<rect x="-934.25" y="-2032.75" class="st0" width="15.5" height="15.5"/>
		</g>
	</g>
	<g transform="translate(400,880) scale(0.4,0.4)">
		<g transform="">
			<rect x="-1018.75" y="-2032.75" class="st0" width="15.5" height="15.5"/>
		</g>
	</g>
	<g transform="translate(520,880) scale(0.4,0.4)">
		<g transform="">
			<rect x="-1272.25" y="-2032.75" class="st0" width="15.5" height="15.5"/>
		</g>
	</g>
	<g transform="translate(560,880) scale(0.4,0.4)">
		<g transform="">
			<rect x="-1356.75" y="-2032.75" class="st0" width="15.5" height="15.5"/>
		</g>
	</g>
	<g transform="translate(640,880) scale(0.4,0.4)">
		<g transform="">
			<rect x="-1525.75" y="-2032.75" class="st0" width="15.5" height="15.5"/>
		</g>
	</g>
	<g transform="translate(840,880) scale(0.4,0.4)">
		<g transform="">
			<rect x="-1948.25" y="-2032.75" class="st0" width="15.5" height="15.5"/>
		</g>
	</g>
	<g transform="translate(880,880) scale(0.4,0.4)">
		<g transform="">
			<rect x="-2032.75" y="-2032.75" class="st0" width="15.5" height="15.5"/>
		</g>
	</g>
	<g transform="translate(960,880) scale(0.4,0.4)">
		<g transform="">
			<rect x="-2201.75" y="-2032.75" class="st0" width="15.5" height="15.5"/>
		</g>
	</g>
	<g transform="translate(360,920) scale(0.4,0.4)">
		<g transform="">
			<rect x="-934.25" y="-2117.25" class="st0" width="15.5" height="15.5"/>
		</g>
	</g>
	<g transform="translate(480,920) scale(0.4,0.4)">
		<g transform="">
			<rect x="-1187.75" y="-2117.25" class="st0" width="15.5" height="15.5"/>
		</g>
	</g>
	<g transform="translate(520,920) scale(0.4,0.4)">
		<g transform="">
			<rect x="-1272.25" y="-2117.25" class="st0" width="15.5" height="15.5"/>
		</g>
	</g>
	<g transform="translate(640,920) scale(0.4,0.4)">
		<g transform="">
			<rect x="-1525.75" y="-2117.25" class="st0" width="15.5" height="15.5"/>
		</g>
	</g>
	<g transform="translate(680,920) scale(0.4,0.4)">
		<g transform="">
			<rect x="-1610.25" y="-2117.25" class="st0" width="15.5" height="15.5"/>
		</g>
	</g>
	<g transform="translate(760,920) scale(0.4,0.4)">
		<g transform="">
			<rect x="-1779.25" y="-2117.25" class="st0" width="15.5" height="15.5"/>
		</g>
	</g>
	<g transform="translate(800,920) scale(0.4,0.4)">
		<g transform="">
			<rect x="-1863.75" y="-2117.25" class="st0" width="15.5" height="15.5"/>
		</g>
	</g>
	<g transform="translate(960,920) scale(0.4,0.4)">
		<g transform="">
			<rect x="-2201.75" y="-2117.25" class="st0" width="15.5" height="15.5"/>
		</g>
	</g>
	<g transform="translate(320,960) scale(0.4,0.4)">
		<g transform="">
			<rect x="-849.75" y="-2201.75" class="st0" width="15.5" height="15.5"/>
		</g>
	</g>
	<g transform="translate(360,960) scale(0.4,0.4)">
		<g transform="">
			<rect x="-934.25" y="-2201.75" class="st0" width="15.5" height="15.5"/>
		</g>
	</g>
	<g transform="translate(440,960) scale(0.4,0.4)">
		<g transform="">
			<rect x="-1103.25" y="-2201.75" class="st0" width="15.5" height="15.5"/>
		</g>
	</g>
	<g transform="translate(480,960) scale(0.4,0.4)">
		<g transform="">
			<rect x="-1187.75" y="-2201.75" class="st0" width="15.5" height="15.5"/>
		</g>
	</g>
	<g transform="translate(520,960) scale(0.4,0.4)">
		<g transform="">
			<rect x="-1272.25" y="-2201.75" class="st0" width="15.5" height="15.5"/>
		</g>
	</g>
	<g transform="translate(640,960) scale(0.4,0.4)">
		<g transform="">
			<rect x="-1525.75" y="-2201.75" class="st0" width="15.5" height="15.5"/>
		</g>
	</g>
	<g transform="translate(840,960) scale(0.4,0.4)">
		<g transform="">
			<rect x="-1948.25" y="-2201.75" class="st0" width="15.5" height="15.5"/>
		</g>
	</g>
	<g transform="translate(960,960) scale(0.4,0.4)">
		<g transform="">
			<rect x="-2201.75" y="-2201.75" class="st0" width="15.5" height="15.5"/>
		</g>
	</g>
	<g transform="translate(0,0) scale(2.8, 2.8)">
		<g transform="">
			<g>
				<rect x="-22.5" y="-22.5" class="st1" width="10.85" height="10.85"/>
				<path class="st0" d="M-11.65-24.82H-22.5h-2.32v2.32v10.85v2.32h2.32h10.85h2.32v-2.32V-22.5v-2.32H-11.65z M-11.65-11.65H-22.5
					V-22.5h10.85V-11.65z"/>
			</g>
		</g>
	</g>
	<g transform="translate(720,0) scale(2.8, 2.8)">
		<g transform="">
			<g>
				<rect x="-239.78" y="-22.5" class="st1" width="10.85" height="10.85"/>
				<path class="st0" d="M-228.93-24.82h-10.85h-2.32v2.32v10.85v2.32h2.32h10.85h2.32v-2.32V-22.5v-2.32H-228.93z M-228.93-11.65
					h-10.85V-22.5h10.85V-11.65z"/>
			</g>
		</g>
	</g>
	<g transform="translate(0,720) scale(2.8, 2.8)">
		<g transform="">
			<g>
				<rect x="-22.5" y="-239.78" class="st1" width="10.85" height="10.85"/>
				<path class="st0" d="M-11.65-242.11H-22.5h-2.32v2.32v10.85v2.32h2.32h10.85h2.32v-2.32v-10.85v-2.32H-11.65z M-11.65-228.93
					H-22.5v-10.85h10.85V-228.93z"/>
			</g>
		</g>
	</g>
	<g transform="translate(80,80) scale(1.2, 1.2)">
		<g transform="">
			<rect x="-114.25" y="-114.25" class="st0" width="15.5" height="15.5"/>
		</g>
	</g>
	<g transform="translate(800,80) scale(1.2, 1.2)">
		<g transform="">
			<rect x="-621.25" y="-114.25" class="st0" width="15.5" height="15.5"/>
		</g>
	</g>
	<g transform="translate(80,800) scale(1.2, 1.2)">
		<g transform="">
			<rect x="-114.25" y="-621.25" class="st0" width="15.5" height="15.5"/>
		</g>
	</g>
</g>
</svg>
