<svg width="80" height="80" viewBox="0 0 80 80" fill="none" xmlns="http://www.w3.org/2000/svg">
<path d="M18.3827 33.9518C18.5011 32.5485 19.1709 31.239 20.2586 30.2843C21.3464 29.3295 22.7723 28.7995 24.2524 28.7998H59.7476C61.2277 28.7995 62.6536 29.3295 63.7414 30.2843C64.8291 31.239 65.4989 32.5485 65.6173 33.9518L67.9811 61.9519C68.0461 62.7224 67.9427 63.4974 67.6774 64.2281C67.4121 64.9588 66.9906 65.6293 66.4395 66.1974C65.8884 66.7655 65.2196 67.219 64.4752 67.5292C63.7309 67.8394 62.927 67.9997 62.1143 67.9999H21.8857C21.073 67.9997 20.2691 67.8394 19.5248 67.5292C18.7804 67.219 18.1116 66.7655 17.5605 66.1974C17.0094 65.6293 16.5879 64.9588 16.3226 64.2281C16.0573 63.4974 15.9539 62.7224 16.0189 61.9519L18.3827 33.9518V33.9518Z" stroke="#40A0FF" stroke-width="6" stroke-linecap="round" stroke-linejoin="round"/>
<path d="M53.7747 37.2001V23.2C53.7747 20.2296 52.5342 17.3808 50.326 15.2804C48.1178 13.18 45.1228 12 41.9999 12C38.877 12 35.8821 13.18 33.6739 15.2804C31.4657 17.3808 30.2251 20.2296 30.2251 23.2V37.2001" stroke="#40A0FF" stroke-width="6" stroke-linecap="round" stroke-linejoin="round"/>
</svg>
