<svg width="80" height="80" viewBox="0 0 80 80" fill="none" xmlns="http://www.w3.org/2000/svg">
<path d="M40 70C56.5685 70 70 56.5685 70 40C70 23.4315 56.5685 10 40 10C23.4315 10 10 23.4315 10 40C10 56.5685 23.4315 70 40 70Z" stroke="#AF8BE8" stroke-width="6" stroke-linecap="round" stroke-linejoin="round"/>
<path d="M46.2233 32.5C45.4033 30.9 43.8633 29.9367 42.2233 30H37.7766C35.3233 30 33.3333 32.2333 33.3333 35C33.3333 37.7567 35.3233 39.9967 37.7766 39.9967H42.2233C44.6766 39.9967 46.6666 42.2333 46.6666 44.9967C46.6666 47.7567 44.6766 49.9933 42.2233 49.9933H37.7766C36.1366 50.0567 34.5966 49.0933 33.7766 47.4933" stroke="#AF8BE8" stroke-width="6" stroke-linecap="round" stroke-linejoin="round"/>
<path d="M40 23.3335V30.0002" stroke="#AF8BE8" stroke-width="6" stroke-linecap="round" stroke-linejoin="round"/>
<path d="M40 50V56.6667" stroke="#AF8BE8" stroke-width="6" stroke-linecap="round" stroke-linejoin="round"/>
<path d="M20 20L25 25" stroke="#AF8BE8" stroke-width="6" stroke-linecap="round" stroke-linejoin="round"/>
<path d="M55 55L60 60" stroke="#AF8BE8" stroke-width="6" stroke-linecap="round" stroke-linejoin="round"/>
</svg>
