<svg width="80" height="80" viewBox="0 0 80 80" fill="none" xmlns="http://www.w3.org/2000/svg">
<path d="M29.2961 50.6327L50.6325 29.2964" stroke="#BFE3A3" stroke-width="6" stroke-linecap="round" stroke-linejoin="round"/>
<path d="M31.0742 32.8524C32.0561 32.8524 32.8522 32.0564 32.8522 31.0744C32.8522 30.0924 32.0561 29.2964 31.0742 29.2964C30.0922 29.2964 29.2961 30.0924 29.2961 31.0744C29.2961 32.0564 30.0922 32.8524 31.0742 32.8524Z" fill="#BFE3A3" stroke="#BFE3A3" stroke-width="6" stroke-linecap="round" stroke-linejoin="round"/>
<path d="M48.8542 50.6327C49.8362 50.6327 50.6322 49.8367 50.6322 48.8547C50.6322 47.8727 49.8362 47.0767 48.8542 47.0767C47.8722 47.0767 47.0762 47.8727 47.0762 48.8547C47.0762 49.8367 47.8722 50.6327 48.8542 50.6327Z" fill="#BFE3A3" stroke="#BFE3A3" stroke-width="6" stroke-linecap="round" stroke-linejoin="round"/>
<path d="M15.0721 22.8954C15.0721 20.8205 15.8963 18.8306 17.3635 17.3635C18.8306 15.8963 20.8205 15.0721 22.8954 15.0721H26.4514C28.5171 15.0709 30.4985 14.2528 31.9633 12.7962L34.4526 10.307C35.1796 9.57584 36.044 8.99564 36.996 8.59973C37.948 8.20381 38.9689 8 40 8C41.0311 8 42.052 8.20381 43.004 8.59973C43.956 8.99564 44.8204 9.57584 45.5474 10.307L48.0367 12.7962C49.5015 14.2528 51.4829 15.0709 53.5486 15.0721H57.1046C59.1795 15.0721 61.1694 15.8963 62.6365 17.3635C64.1037 18.8306 64.9279 20.8205 64.9279 22.8954V26.4514C64.9291 28.5171 65.7472 30.4985 67.2038 31.9633L69.693 34.4526C70.4242 35.1796 71.0044 36.044 71.4003 36.996C71.7962 37.948 72 38.9689 72 40C72 41.0311 71.7962 42.052 71.4003 43.004C71.0044 43.956 70.4242 44.8204 69.693 45.5474L67.2038 48.0367C65.7472 49.5015 64.9291 51.4829 64.9279 53.5486V57.1046C64.9279 59.1795 64.1037 61.1694 62.6365 62.6365C61.1694 64.1037 59.1795 64.9279 57.1046 64.9279H53.5486C51.4829 64.9291 49.5015 65.7472 48.0367 67.2038L45.5474 69.693C44.8204 70.4242 43.956 71.0044 43.004 71.4003C42.052 71.7962 41.0311 72 40 72C38.9689 72 37.948 71.7962 36.996 71.4003C36.044 71.0044 35.1796 70.4242 34.4526 69.693L31.9633 67.2038C30.4985 65.7472 28.5171 64.9291 26.4514 64.9279H22.8954C20.8205 64.9279 18.8306 64.1037 17.3635 62.6365C15.8963 61.1694 15.0721 59.1795 15.0721 57.1046V53.5486C15.0709 51.4829 14.2528 49.5015 12.7962 48.0367L10.307 45.5474C9.57584 44.8204 8.99564 43.956 8.59973 43.004C8.20381 42.052 8 41.0311 8 40C8 38.9689 8.20381 37.948 8.59973 36.996C8.99564 36.044 9.57584 35.1796 10.307 34.4526L12.7962 31.9633C14.2528 30.4985 15.0709 28.5171 15.0721 26.4514V22.8954" stroke="#BFE3A3" stroke-width="6" stroke-linecap="round" stroke-linejoin="round"/>
</svg>
