<svg width="16" height="16" viewBox="0 0 16 16" fill="none" xmlns="http://www.w3.org/2000/svg">
<g clip-path="url(#clip0_2645_5375)">
<path fill-rule="evenodd" clip-rule="evenodd" d="M2.70705 14.7071L14.707 2.70711C15.0976 2.31658 15.0976 1.68342 14.707 1.29289C14.3165 0.902369 13.6834 0.902369 13.2928 1.29289L11.7544 2.83134C10.5724 2.23269 9.32648 2 7.99994 2C4.78618 2 1.05523 3.85079 0.0327128 7.7461L-0.0339355 8L0.0327128 8.2539C0.458623 9.87641 1.36445 11.1518 2.50339 12.0823L1.29283 13.2929C0.902308 13.6834 0.902308 14.3166 1.29283 14.7071C1.68336 15.0976 2.31652 15.0976 2.70705 14.7071ZM3.92687 10.6589C3.06735 10.0047 2.39193 9.11772 2.04041 8.00019C2.86296 5.39216 5.49476 4 7.99994 4C8.8103 4 9.54492 4.10388 10.2349 4.35079L9.29335 5.29237C8.90172 5.10495 8.46309 5 7.99994 5C6.34308 5 4.99994 6.34315 4.99994 8C4.99994 8.46315 5.10489 8.90178 5.29231 9.29342L3.92687 10.6589ZM6.53702 13.8771C7.0247 13.9589 7.5154 14 7.99994 14C11.2137 14 14.9447 12.1492 15.9672 8.2539L16.0338 8L15.9672 7.7461C15.7451 6.90007 15.3904 6.14298 14.9357 5.47844L13.487 6.92717C13.6782 7.25548 13.8378 7.61269 13.9595 7.99975C13.1837 10.4597 10.7982 11.838 8.42759 11.9866L6.53702 13.8771Z" fill="#58788A"/>
</g>
<defs>
<clipPath id="clip0_2645_5375">
<rect width="16" height="16" fill="white"/>
</clipPath>
</defs>
</svg>
