<svg width="25" height="24" viewBox="0 0 25 24" fill="none" xmlns="http://www.w3.org/2000/svg">
<path fill-rule="evenodd" clip-rule="evenodd" d="M12.5 20.9999C8.1 20.9999 4.5 17.3999 4.5 12.9999C4.5 10.6058 5.60075 8.44756 7.24451 6.9435C7.60515 6.61352 8.15674 6.65665 8.5024 7.0023C8.95676 7.45666 8.85512 8.22012 8.38536 8.65855C7.24188 9.72576 6.5 11.2701 6.5 12.9999C6.5 16.2999 9.2 18.9999 12.5 18.9999C15.8 18.9999 18.5 16.2999 18.5 12.9999C18.5 11.2293 17.7228 9.6531 16.5853 8.53179C16.1593 8.11187 16.0903 7.40959 16.5133 6.98663C16.8499 6.64997 17.3871 6.60805 17.7391 6.92856C19.3919 8.43324 20.5 10.5979 20.5 12.9999C20.5 17.3999 16.9 20.9999 12.5 20.9999Z" fill="#99341D"/>
<path fill-rule="evenodd" clip-rule="evenodd" d="M11.5 5C11.5 4.44772 11.9477 4 12.5 4C13.0523 4 13.5 4.44772 13.5 5V13C13.5 13.5523 13.0523 14 12.5 14C11.9477 14 11.5 13.5523 11.5 13V5Z" fill="#FF5630"/>
</svg>
