<svg width="14" height="19" viewBox="0 0 14 19" fill="none" xmlns="http://www.w3.org/2000/svg">
<path d="M7 19C5.73694 17.9226 4.56619 16.7415 3.5 15.469C1.9 13.558 8.78894e-07 10.712 8.78894e-07 7.99997C-0.00069302 6.61493 0.409509 5.26082 1.17869 4.109C1.94788 2.95718 3.04147 2.05943 4.32107 1.52937C5.60067 0.999307 7.00875 0.86076 8.36712 1.13126C9.72548 1.40176 10.9731 2.06915 11.952 3.04897C12.6038 3.69783 13.1203 4.46951 13.4719 5.31934C13.8234 6.16918 14.0029 7.0803 14 7.99997C14 10.712 12.1 13.558 10.5 15.469C9.4338 16.7415 8.26306 17.9226 7 19ZM7 2.99997C5.67441 3.00156 4.40356 3.52885 3.46622 4.46619C2.52888 5.40353 2.00159 6.67438 2 7.99997C2 9.16597 2.527 11.185 5.035 14.186C5.65313 14.924 6.30901 15.6296 7 16.3C7.69102 15.6304 8.34721 14.9258 8.966 14.189C11.473 11.184 12 9.16497 12 7.99997C11.9984 6.67438 11.4711 5.40353 10.5338 4.46619C9.59644 3.52885 8.3256 3.00156 7 2.99997ZM7 11C6.20435 11 5.44129 10.6839 4.87868 10.1213C4.31607 9.55868 4 8.79562 4 7.99997C4 7.20432 4.31607 6.44126 4.87868 5.87865C5.44129 5.31604 6.20435 4.99997 7 4.99997C7.79565 4.99997 8.55871 5.31604 9.12132 5.87865C9.68393 6.44126 10 7.20432 10 7.99997C10 8.79562 9.68393 9.55868 9.12132 10.1213C8.55871 10.6839 7.79565 11 7 11Z" fill="#00B7B5"/>
</svg>
