<svg width="16" height="16" viewBox="0 0 16 16" fill="none" xmlns="http://www.w3.org/2000/svg">
<path fill-rule="evenodd" clip-rule="evenodd" d="M4 8C5.30622 8 6.41746 7.16519 6.82929 6L14 6C14.5523 6 15 5.55228 15 5C15 4.44771 14.5523 4 14 4L6.82929 4C6.41746 2.83481 5.30622 2 4 2C2.34315 2 1 3.34315 1 5C1 6.65685 2.34315 8 4 8ZM4 6C4.55228 6 5 5.55228 5 5C5 4.44772 4.55228 4 4 4C3.44772 4 3 4.44772 3 5C3 5.55228 3.44772 6 4 6ZM8 14C6.69378 14 5.58254 13.1652 5.17071 12H2C1.44772 12 1 11.5523 1 11C1 10.4477 1.44772 10 2 10H5.17071C5.58254 8.83481 6.69378 8 8 8C9.30622 8 10.4175 8.83481 10.8293 10H14C14.5523 10 15 10.4477 15 11C15 11.5523 14.5523 12 14 12H10.8293C10.4175 13.1652 9.30622 14 8 14ZM8 12C8.55228 12 9 11.5523 9 11C9 10.4477 8.55228 10 8 10C7.44772 10 7 10.4477 7 11C7 11.5523 7.44772 12 8 12Z" fill="#263238"/>
</svg>
