<svg width="20" height="20" viewBox="0 0 20 20" fill="none" xmlns="http://www.w3.org/2000/svg">
<path d="M14.75 11.9598C15 12.0898 15.16 12.1598 15.21 12.2598C15.27 12.3698 15.25 12.8698 15 13.4398C14.8 13.9998 13.76 14.5398 13.3 14.5598C12.84 14.5798 12.83 14.9198 10.34 13.8298C7.85001 12.7398 6.35001 10.0798 6.23001 9.90976C6.11001 9.73976 5.27001 8.52976 5.31001 7.29976C5.36001 6.07976 6.00001 5.49976 6.26001 5.25976C6.50001 4.99976 6.77001 4.96976 6.94001 4.99976H7.41001C7.56001 4.99976 7.77001 4.93976 7.96001 5.44976L8.65001 7.31976C8.71001 7.44976 8.75001 7.59976 8.66001 7.75976L8.39001 8.16976L8.00001 8.58976C7.88001 8.70976 7.74001 8.83976 7.88001 9.08976C8.00001 9.34976 8.50001 10.1798 9.20001 10.8698C10.11 11.7498 10.91 12.0398 11.15 12.1698C11.39 12.3098 11.54 12.2898 11.69 12.1298L12.5 11.1898C12.69 10.9398 12.85 10.9998 13.08 11.0798L14.75 11.9598V11.9598ZM10 -0.000244141C11.3132 -0.000244141 12.6136 0.258414 13.8268 0.760961C15.0401 1.26351 16.1425 2.0001 17.0711 2.92869C17.9997 3.85727 18.7363 4.95967 19.2388 6.17292C19.7413 7.38618 20 8.68654 20 9.99976C20 12.6519 18.9464 15.1955 17.0711 17.0708C15.1957 18.9462 12.6522 19.9998 10 19.9998C8.03001 19.9998 6.20001 19.4298 4.65001 18.4498L6.42913e-06 19.9998L1.55001 15.3498C0.535511 13.7499 -0.00214461 11.8941 6.42913e-06 9.99976C6.42913e-06 7.34759 1.05357 4.80405 2.92894 2.92869C4.8043 1.05332 7.34784 -0.000244141 10 -0.000244141V-0.000244141ZM10 1.99976C7.87827 1.99976 5.84344 2.84261 4.34315 4.3429C2.84286 5.84319 2.00001 7.87802 2.00001 9.99976C2.00001 11.7198 2.54001 13.3098 3.46001 14.6098L2.50001 17.4998L5.39001 16.5398C6.73779 17.4933 8.34902 18.0036 10 17.9998C12.1217 17.9998 14.1566 17.1569 15.6569 15.6566C17.1572 14.1563 18 12.1215 18 9.99976C18 7.87802 17.1572 5.84319 15.6569 4.3429C14.1566 2.84261 12.1217 1.99976 10 1.99976V1.99976Z" fill="#00B7B7"/>
</svg>
