<svg width="24" height="25" viewBox="0 0 24 25" fill="none" xmlns="http://www.w3.org/2000/svg">
<path d="M14 19.6008H19V5.60083H5V19.6008H12V14.6008H10V12.6008H12V10.9468C12 9.60983 12.14 9.12483 12.4 8.63583C12.6561 8.15202 13.052 7.75652 13.536 7.50083C13.918 7.29583 14.393 7.17283 15.223 7.11983C15.552 7.09883 15.978 7.12483 16.501 7.19983V9.09983H16C15.083 9.09983 14.704 9.14283 14.478 9.26383C14.3431 9.33319 14.2334 9.44298 14.164 9.57783C14.044 9.80383 14 10.0278 14 10.9458V12.6008H16.5L16 14.6008H14V19.6008ZM4 3.60083H20C20.2652 3.60083 20.5196 3.70619 20.7071 3.89372C20.8946 4.08126 21 4.33561 21 4.60083V20.6008C21 20.866 20.8946 21.1204 20.7071 21.3079C20.5196 21.4955 20.2652 21.6008 20 21.6008H4C3.73478 21.6008 3.48043 21.4955 3.29289 21.3079C3.10536 21.1204 3 20.866 3 20.6008V4.60083C3 4.33561 3.10536 4.08126 3.29289 3.89372C3.48043 3.70619 3.73478 3.60083 4 3.60083Z" fill="white"/>
</svg>
