<svg width="24" height="25" viewBox="0 0 24 25" fill="none" xmlns="http://www.w3.org/2000/svg">
<g clip-path="url(#clip0)">
<path d="M23.9372 9.81135C23.7792 9.32539 23.3482 8.98132 22.8402 8.93536L15.9121 8.30639L13.1741 1.89613C12.972 1.42518 12.512 1.12122 12 1.12122C11.4881 1.12122 11.0279 1.42518 10.827 1.89613L8.08902 8.30639L1.15982 8.93536C0.651881 8.98224 0.221759 9.3263 0.0628207 9.81135C-0.0952019 10.2973 0.0507355 10.8304 0.434897 11.1673L5.67198 15.7594L4.12783 22.5605C4.01485 23.0605 4.20895 23.5776 4.62387 23.8776C4.8469 24.0396 5.10893 24.1205 5.37187 24.1205C5.59783 24.1205 5.82396 24.0605 6.02593 23.9396L12 20.3676L17.973 23.9396C18.4112 24.2015 18.9622 24.1775 19.3762 23.8776C19.7911 23.5776 19.9852 23.0605 19.8722 22.5605L18.3281 15.7594L23.5652 11.1673C23.9491 10.8304 24.0953 10.2984 23.9372 9.81135Z" fill="white"/>
</g>
<defs>
<clipPath id="clip0">
<rect width="24" height="24" fill="white" transform="translate(0 0.605957)"/>
</clipPath>
</defs>
</svg>
