<svg width="25" height="25" viewBox="0 0 25 25" fill="none" xmlns="http://www.w3.org/2000/svg">
<g clip-path="url(#clip0)">
<path d="M18.0034 0.60083H6.99657C3.4143 0.60083 0.5 3.51513 0.5 7.0974V18.1044C0.5 21.6865 3.4143 24.6008 6.99657 24.6008H18.0036C21.5857 24.6008 24.5 21.6865 24.5 18.1044V7.0974C24.5 3.51513 21.5857 0.60083 18.0034 0.60083V0.60083ZM23.093 18.1044C23.093 20.9107 20.8098 23.1938 18.0034 23.1938H6.99657C4.19012 23.1938 1.90698 20.9107 1.90698 18.1044V7.0974C1.90698 4.29095 4.19012 2.00781 6.99657 2.00781H18.0036C20.8098 2.00781 23.093 4.29095 23.093 7.0974V18.1044Z" fill="white"/>
<path d="M12.5 6.03857C8.88146 6.03857 5.93768 8.98235 5.93768 12.6009C5.93768 16.2194 8.88146 19.1632 12.5 19.1632C16.1185 19.1632 19.0623 16.2194 19.0623 12.6009C19.0623 8.98235 16.1185 6.03857 12.5 6.03857ZM12.5 17.7562C9.65746 17.7562 7.34466 15.4436 7.34466 12.6009C7.34466 9.75835 9.65746 7.44555 12.5 7.44555C15.3427 7.44555 17.6553 9.75835 17.6553 12.6009C17.6553 15.4436 15.3427 17.7562 12.5 17.7562Z" fill="white"/>
<path d="M19.2192 3.70801C18.1499 3.70801 17.2801 4.57794 17.2801 5.64709C17.2801 6.71643 18.1499 7.58636 19.2192 7.58636C20.2885 7.58636 21.1585 6.71643 21.1585 5.64709C21.1585 4.57776 20.2885 3.70801 19.2192 3.70801ZM19.2192 6.17919C18.9259 6.17919 18.6871 5.94043 18.6871 5.64709C18.6871 5.35357 18.9259 5.11499 19.2192 5.11499C19.5127 5.11499 19.7515 5.35357 19.7515 5.64709C19.7515 5.94043 19.5127 6.17919 19.2192 6.17919Z" fill="white"/>
</g>
<defs>
<clipPath id="clip0">
<rect width="24" height="24" fill="white" transform="translate(0.5 0.60083)"/>
</clipPath>
</defs>
</svg>
