<svg width="24" height="25" viewBox="0 0 24 25" fill="none" xmlns="http://www.w3.org/2000/svg">
<path d="M21.8906 3.46533H7.73438C6.57094 3.46533 5.625 4.41174 5.625 5.57471C5.625 6.73814 6.57094 7.68408 7.73438 7.68408H21.8906C23.0536 7.68408 24 6.73814 24 5.57471C24 4.41174 23.0536 3.46533 21.8906 3.46533Z" fill="white"/>
<path d="M21.8906 10.4966H7.73438C6.57094 10.4966 5.625 11.443 5.625 12.606C5.625 13.7694 6.57094 14.7153 7.73438 14.7153H21.8906C23.0536 14.7153 24 13.7694 24 12.606C24 11.443 23.0536 10.4966 21.8906 10.4966Z" fill="white"/>
<path d="M21.8906 17.5278H7.73438C6.57094 17.5278 5.625 18.4742 5.625 19.6372C5.625 20.8006 6.57094 21.7466 7.73438 21.7466H21.8906C23.0536 21.7466 24 20.8006 24 19.6372C24 18.4742 23.0536 17.5278 21.8906 17.5278Z" fill="white"/>
<path d="M2.10938 3.46533C0.945938 3.46533 0 4.41174 0 5.57471C0 6.73814 0.945938 7.68408 2.10938 7.68408C3.27234 7.68408 4.21875 6.73814 4.21875 5.57471C4.21875 4.41174 3.27234 3.46533 2.10938 3.46533Z" fill="white"/>
<path d="M2.10938 10.4966C0.945938 10.4966 0 11.443 0 12.606C0 13.7694 0.945938 14.7153 2.10938 14.7153C3.27234 14.7153 4.21875 13.7694 4.21875 12.606C4.21875 11.443 3.27234 10.4966 2.10938 10.4966Z" fill="white"/>
<path d="M2.10938 17.5278C0.945938 17.5278 0 18.4742 0 19.6372C0 20.8006 0.945938 21.7466 2.10938 21.7466C3.27234 21.7466 4.21875 20.8006 4.21875 19.6372C4.21875 18.4742 3.27234 17.5278 2.10938 17.5278Z" fill="white"/>
</svg>
