<svg width="24" height="25" viewBox="0 0 24 25" fill="none" xmlns="http://www.w3.org/2000/svg">
<g clip-path="url(#clip0)">
<path d="M22.4041 12.9168C22.3076 12.7192 22.3076 12.4926 22.4041 12.2951L23.2993 10.4639C23.7976 9.44435 23.4028 8.22912 22.4003 7.69723L20.5998 6.74192C20.4056 6.63889 20.2724 6.45552 20.2344 6.239L19.8823 4.2314C19.6862 3.11363 18.6522 2.36251 17.5288 2.52146L15.5107 2.80693C15.2929 2.83768 15.0775 2.76765 14.9195 2.61479L13.4546 1.19767C12.6389 0.40858 11.3611 0.408533 10.5455 1.19767L9.08056 2.61493C8.9225 2.76783 8.70711 2.83772 8.48933 2.80707L6.47123 2.5216C5.34741 2.36255 4.31382 3.11377 4.11775 4.23154L3.76562 6.23905C3.72761 6.45561 3.59444 6.63894 3.40024 6.74202L1.59978 7.69732C0.597315 8.22916 0.202442 9.44449 0.700814 10.4641L1.59589 12.2952C1.69245 12.4928 1.69245 12.7193 1.59589 12.9169L0.700767 14.748C0.202395 15.7676 0.597268 16.9828 1.59973 17.5147L3.40019 18.47C3.59444 18.573 3.72761 18.7564 3.76562 18.9729L4.11775 20.9805C4.29625 21.9981 5.16877 22.7117 6.17156 22.7116C6.27033 22.7116 6.37055 22.7047 6.47128 22.6904L8.48938 22.4049C8.70702 22.374 8.92255 22.4442 9.08061 22.5971L10.5455 24.0142C10.9534 24.4088 11.4766 24.606 12 24.606C12.5233 24.6059 13.0468 24.4087 13.4545 24.0142L14.9195 22.5971C15.0775 22.4442 15.293 22.3744 15.5107 22.4049L17.5288 22.6904C18.6528 22.8494 19.6862 22.0982 19.8823 20.9805L20.2344 18.973C20.2725 18.7564 20.4056 18.5731 20.5998 18.47L22.4003 17.5147C23.4028 16.9828 23.7976 15.7675 23.2993 14.7479L22.4041 12.9168ZM21.7515 16.2919L19.951 17.2472C19.377 17.5518 18.9833 18.0936 18.871 18.7337L18.5189 20.7413C18.4526 21.1194 18.103 21.3735 17.7227 21.3198L15.7046 21.0343C15.061 20.9431 14.4241 21.1503 13.957 21.6021L12.4921 23.0192C12.2162 23.2861 11.7839 23.2861 11.5079 23.0192L10.043 21.6021C9.64821 21.2202 9.13212 21.0132 8.59335 21.0132C8.49463 21.0132 8.39511 21.0202 8.29546 21.0343L6.27736 21.3197C5.89739 21.3735 5.54747 21.1194 5.4811 20.7412L5.12893 18.7336C5.01662 18.0935 4.62296 17.5517 4.04889 17.2471L2.24843 16.2918C1.90924 16.1119 1.77565 15.7007 1.94426 15.3558L2.83938 13.5246C3.12475 12.9407 3.12475 12.2711 2.83938 11.6872L1.94426 9.85605C1.77565 9.5111 1.90924 9.09996 2.24843 8.92L4.04889 7.9647C4.62292 7.66006 5.01662 7.11828 5.12888 6.47816L5.481 4.47061C5.54738 4.09242 5.89697 3.83836 6.27727 3.89208L8.29536 4.17755C8.93872 4.26862 9.57579 4.06158 10.0429 3.60975L11.5078 2.19263C11.7837 1.92573 12.2161 1.92573 12.4921 2.19263L13.9569 3.60975C14.424 4.06162 15.061 4.26862 15.7045 4.17755L17.7226 3.89208C18.1026 3.83831 18.4525 4.09242 18.5188 4.47061L18.871 6.47821C18.9833 7.11833 19.3769 7.66015 19.951 7.9647L21.7515 8.92C22.0906 9.09996 22.2242 9.5111 22.0556 9.85605L21.1605 11.6872C20.8751 12.271 20.8751 12.9407 21.1605 13.5246L22.0556 15.3557C22.2243 15.7007 22.0907 16.1119 21.7515 16.2919Z" fill="white"/>
<path d="M17.0571 7.5489C16.7868 7.27862 16.3485 7.27862 16.0783 7.5489L6.94288 16.6843C6.6726 16.9546 6.6726 17.3928 6.94288 17.6631C7.07802 17.7982 7.25516 17.8658 7.43226 17.8658C7.60935 17.8658 7.78654 17.7983 7.92163 17.6631L17.057 8.52774C17.3274 8.25741 17.3274 7.81923 17.0571 7.5489Z" fill="white"/>
<path d="M9.23157 6.37695C7.83226 6.37695 6.69382 7.5154 6.69382 8.9147C6.69382 10.314 7.83226 11.4525 9.23157 11.4525C10.6309 11.4525 11.7693 10.314 11.7693 8.9147C11.7693 7.5154 10.6309 6.37695 9.23157 6.37695ZM9.23157 10.0682C8.59552 10.0682 8.07807 9.55075 8.07807 8.91466C8.07807 8.27861 8.59552 7.76116 9.23157 7.76116C9.86761 7.76116 10.3851 8.27861 10.3851 8.91466C10.3851 9.55075 9.86761 10.0682 9.23157 10.0682Z" fill="white"/>
<path d="M14.7684 13.7595C13.3691 13.7595 12.2307 14.898 12.2307 16.2973C12.2307 17.6966 13.3691 18.835 14.7684 18.835C16.1677 18.835 17.3062 17.6966 17.3062 16.2973C17.3062 14.898 16.1677 13.7595 14.7684 13.7595ZM14.7684 17.4508C14.1324 17.4508 13.6149 16.9333 13.6149 16.2973C13.6149 15.6612 14.1323 15.1438 14.7684 15.1438C15.4044 15.1438 15.9219 15.6612 15.9219 16.2973C15.9219 16.9333 15.4044 17.4508 14.7684 17.4508Z" fill="white"/>
</g>
<defs>
<clipPath id="clip0">
<rect width="24" height="24" fill="white" transform="translate(0 0.605957)"/>
</clipPath>
</defs>
</svg>
