<svg width="18" height="20" viewBox="0 0 18 20" fill="none" xmlns="http://www.w3.org/2000/svg">
<path d="M15.8623 14.3157C15.2789 13.7863 14.0339 12.7604 13.0943 12.791C12.7867 12.801 12.519 12.9226 12.2759 13.0714V13.0711C12.2759 13.0711 12.2651 13.078 12.2471 13.0896C12.1929 13.1235 12.1394 13.159 12.088 13.1958L12.0885 13.1963C11.9202 13.3132 11.6555 13.5064 11.3567 13.7627L11.3539 13.7598C11.3441 13.7681 11.3338 13.7768 11.3238 13.7848C11.2616 13.838 11.1984 13.8973 11.1346 13.959C11.1323 13.9611 11.13 13.9626 11.1285 13.9646C11.1249 13.9675 11.1231 13.9703 11.12 13.9734C10.771 14.3129 10.3968 14.733 9.91887 14.7772C9.04027 14.8576 8.19737 14.1448 7.74278 13.728C6.71873 12.79 5.79565 11.6498 5.06429 10.386C4.71659 9.78593 4.28592 8.95975 4.55599 8.12841C4.69012 7.71313 5.0928 7.47207 5.46133 7.23129C5.46235 7.23101 5.46262 7.2305 5.46313 7.2305C5.73759 7.06783 6.0719 6.80496 6.2991 6.61762C6.68635 6.30437 7.12504 5.91093 7.19571 5.3394C7.30107 4.50088 6.73137 3.35785 6.28395 2.60054C5.88229 1.9211 5.18535 0.759312 4.34351 0.62001C3.95266 0.555253 3.62602 0.722783 3.33618 0.948414C3.1401 1.09257 2.59738 1.49936 2.13222 1.9126C2.11656 1.92572 2.10137 1.93907 2.08649 1.95242C2.01504 2.01718 1.94437 2.08193 1.8786 2.1454C1.8786 2.14618 1.8786 2.14642 1.8786 2.14642C0.836808 3.15403 -0.0104347 4.57382 9.71366e-05 6.55795C0.0152488 9.28499 1.33768 11.4367 2.53337 13.1299C3.80051 14.9244 5.4434 16.7646 7.36661 18.078C8.43847 18.8096 9.50954 19.4017 11.1038 19.6201C12.8497 19.8596 14.0958 19.4153 15.1821 18.6718C15.1885 18.6675 15.1942 18.6652 15.2003 18.661C15.8171 18.2496 16.3246 17.8261 16.6152 17.5707C16.7 17.5003 16.7838 17.426 16.8622 17.3464C16.8719 17.3371 16.8791 17.3302 16.8791 17.3302L16.8784 17.3291C17.0469 17.1539 17.2021 16.9532 17.2481 16.6869C17.3902 15.8719 16.4456 14.8471 15.8623 14.3157Z" fill="white"/>
</svg>
