<svg width="24" height="25" viewBox="0 0 24 25" fill="none" xmlns="http://www.w3.org/2000/svg">
<path d="M15.3 6.15094C14.54 6.15082 13.8103 6.44907 13.2679 6.98151C12.7255 7.51396 12.4139 8.23804 12.4 8.99794L12.372 10.5729C12.3703 10.6575 12.3509 10.7408 12.3148 10.8173C12.2787 10.8938 12.2268 10.9618 12.1626 11.0168C12.0984 11.0719 12.0233 11.1127 11.9422 11.1367C11.8611 11.1607 11.7758 11.1672 11.692 11.1559L10.131 10.9439C8.07699 10.6639 6.10899 9.71794 4.22099 8.14494C3.62299 11.4549 4.79099 13.7479 7.60399 15.5169L9.35099 16.6149C9.434 16.6671 9.50296 16.7388 9.55184 16.8238C9.60072 16.9088 9.62803 17.0044 9.63138 17.1024C9.63474 17.2004 9.61403 17.2977 9.57108 17.3858C9.52813 17.474 9.46423 17.5502 9.38499 17.6079L7.79299 18.7709C8.73999 18.8299 9.63899 18.7879 10.385 18.6399C15.103 17.6979 18.24 14.1479 18.24 8.29194C18.24 7.81394 17.228 6.15094 15.3 6.15094ZM10.4 8.96094C10.4174 7.99699 10.7189 7.05961 11.2665 6.26617C11.8142 5.47272 12.5838 4.85846 13.4789 4.50031C14.374 4.14216 15.3549 4.05602 16.2987 4.25269C17.2426 4.44936 18.1074 4.92009 18.785 5.60594C19.496 5.60094 20.101 5.78094 21.454 4.96094C21.119 6.60094 20.954 7.31294 20.24 8.29194C20.24 15.9339 15.543 19.6499 10.777 20.6009C7.50899 21.2529 2.75699 20.1819 1.39499 18.7599C2.08899 18.7059 4.90899 18.4029 6.53899 17.2099C5.15999 16.3009 -0.329011 13.0709 3.27799 4.38694C4.97099 6.36394 6.68799 7.70994 8.42799 8.42394C9.58599 8.89894 9.86999 8.88894 10.401 8.96194L10.4 8.96094Z" fill="white"/>
</svg>
