<svg width="25" height="23" viewBox="0 0 25 23" fill="none" xmlns="http://www.w3.org/2000/svg">
<mask id="mask0" mask-type="alpha" maskUnits="userSpaceOnUse" x="0" y="3" width="25" height="18">
<path fill-rule="evenodd" clip-rule="evenodd" d="M0.503906 3.37817H24.4871V20.1121H0.503906V3.37817Z" fill="white"/>
</mask>
<g mask="url(#mask0)">
<path fill-rule="evenodd" clip-rule="evenodd" d="M19.5053 3.37744H5.48172C2.73044 3.37744 0.5 5.57647 0.5 8.289V15.2007C0.5 17.9132 2.73044 20.1122 5.48172 20.1122H19.5053C22.2566 20.1122 24.4871 17.9132 24.4871 15.2007V8.289C24.4871 5.57647 22.2566 3.37744 19.5053 3.37744ZM16.1362 12.0811L9.57701 15.1653C9.40218 15.2475 9.20023 15.1221 9.20023 14.9312V8.5698C9.20023 8.37615 9.40751 8.25065 9.5826 8.33812L16.1418 11.6152C16.3369 11.7127 16.3334 11.9884 16.1362 12.0811Z" fill="white"/>
</g>
</svg>
