<svg width="25" height="24" viewBox="0 0 25 24" fill="none" xmlns="http://www.w3.org/2000/svg">
<path d="M12.4 4.40601C12.3 4.40601 12.2 4.40601 12.2 4.40601C14.4 5.70601 15.9 8.10601 15.9 10.906C15.9 15.006 12.7 18.306 8.60001 18.406C9.70001 19.006 11 19.406 12.4 19.406C16.5 19.406 19.9 16.006 19.9 11.906C19.9 7.80601 16.5 4.40601 12.4 4.40601Z" fill="white" fill-opacity="0.5"/>
<path fill-rule="evenodd" clip-rule="evenodd" d="M0.899994 11.906C0.899994 5.50601 5.99999 0.406006 12.4 0.406006C18.7 0.406006 23.9 5.50601 23.9 11.906C23.9 18.306 18.8 23.406 12.4 23.406C5.99999 23.406 0.899994 18.306 0.899994 11.906ZM1.89999 11.906C1.89999 17.706 6.59999 22.406 12.4 22.406C18.1 22.406 22.9 17.706 22.9 11.906C22.9 6.10601 18.2 1.40601 12.4 1.40601C6.59999 1.40601 1.89999 6.10601 1.89999 11.906Z" fill="white"/>
<path d="M12.4 0.156006C5.86192 0.156006 0.649994 5.36793 0.649994 11.906H1.14999C1.14999 5.64408 6.13806 0.656006 12.4 0.656006V0.156006ZM24.15 11.906C24.15 5.36652 18.8366 0.156006 12.4 0.156006V0.656006C18.5633 0.656006 23.65 5.64549 23.65 11.906H24.15ZM12.4 23.656C18.9381 23.656 24.15 18.4441 24.15 11.906H23.65C23.65 18.1679 18.6619 23.156 12.4 23.156V23.656ZM0.649994 11.906C0.649994 18.4441 5.86192 23.656 12.4 23.656V23.156C6.13806 23.156 1.14999 18.1679 1.14999 11.906H0.649994ZM12.4 22.156C6.73806 22.156 2.14999 17.5679 2.14999 11.906H1.64999C1.64999 17.8441 6.46192 22.656 12.4 22.656V22.156ZM22.65 11.906C22.65 17.5664 17.9635 22.156 12.4 22.156V22.656C18.2365 22.656 23.15 17.8456 23.15 11.906H22.65ZM12.4 1.65601C18.0619 1.65601 22.65 6.24408 22.65 11.906H23.15C23.15 5.96793 18.3381 1.15601 12.4 1.15601V1.65601ZM2.14999 11.906C2.14999 6.24408 6.73806 1.65601 12.4 1.65601V1.15601C6.46192 1.15601 1.64999 5.96793 1.64999 11.906H2.14999Z" fill="white"/>
<path fill-rule="evenodd" clip-rule="evenodd" d="M12.8 3.50598H12.6H12.5H12.3C7.59999 3.50598 3.79999 7.30598 3.79999 12.006C3.79999 16.706 7.59999 20.506 12.3 20.506H12.5H12.6H12.8C17.3 20.306 20.9 16.606 20.9 12.006C20.9 7.40598 17.3 3.70598 12.8 3.50598ZM19.8 11.406H16.1C16 8.60598 15.4 6.10598 14.5 4.70598C17.4 5.60598 19.6 8.30598 19.8 11.406ZM10.1 12.406C10.2 16.606 11.5 19.306 12.5 19.406H12.7C13.7 19.206 15 16.506 15.1 12.406H10.1ZM10.1 11.406C10.2 7.30598 11.6 4.50598 12.5 4.40598H12.7C13.7 4.60598 15 7.30598 15.1 11.406H10.1ZM9.09999 11.406C9.09999 8.50598 9.79999 6.00598 10.8 4.60598C7.59999 5.30598 5.09999 8.00598 4.89999 11.406H9.09999ZM4.89999 12.406H9.09999C9.19999 15.306 9.79999 17.906 10.8 19.206C7.59999 18.606 5.09999 15.806 4.89999 12.406ZM16.1 12.406C16.1 15.206 15.4 17.706 14.5 19.106C17.4 18.306 19.6 15.606 19.8 12.406H16.1Z" fill="white"/>
<path d="M12.8 3.50598L12.8111 3.25598H12.8V3.50598ZM12.8 20.506V20.7562L12.8111 20.7557L12.8 20.506ZM16.1 11.406L15.8501 11.4149L15.8588 11.656H16.1V11.406ZM19.8 11.406V11.656H20.0666L20.0495 11.3899L19.8 11.406ZM14.5 4.70598L14.5741 4.46722L13.9185 4.26376L14.2897 4.84117L14.5 4.70598ZM12.5 19.406L12.4751 19.6547L12.4875 19.656H12.5V19.406ZM10.1 12.406V12.156H9.84396L9.85006 12.4119L10.1 12.406ZM12.7 19.406V19.656H12.7247L12.749 19.6511L12.7 19.406ZM15.1 12.406L15.3499 12.4121L15.3562 12.156H15.1V12.406ZM12.5 4.40598V4.15598H12.4861L12.4724 4.15751L12.5 4.40598ZM10.1 11.406L9.85006 11.3999L9.84382 11.656H10.1V11.406ZM12.7 4.40598L12.749 4.16084L12.7247 4.15598H12.7V4.40598ZM15.1 11.406V11.656H15.3562L15.3499 11.3999L15.1 11.406ZM10.8 4.60598L11.0034 4.75129L11.3808 4.22303L10.7466 4.36176L10.8 4.60598ZM9.09999 11.406V11.656H9.34999V11.406H9.09999ZM4.89999 11.406L4.65042 11.3913L4.63485 11.656H4.89999V11.406ZM9.09999 12.406L9.34984 12.3974L9.34152 12.156H9.09999V12.406ZM4.89999 12.406V12.156H4.63485L4.65042 12.4207L4.89999 12.406ZM10.8 19.206L10.7539 19.4517L11.3972 19.5723L10.9981 19.0536L10.8 19.206ZM14.5 19.106L14.2897 18.9708L13.9361 19.5209L14.5665 19.347L14.5 19.106ZM16.1 12.406V12.156H15.85V12.406H16.1ZM19.8 12.406L20.0495 12.4216L20.0661 12.156H19.8V12.406ZM12.6 3.75598H12.8V3.25598H12.6V3.75598ZM12.5 3.75598H12.6V3.25598H12.5V3.75598ZM12.3 3.75598H12.5V3.25598H12.3V3.75598ZM4.04999 12.006C4.04999 7.44405 7.73806 3.75598 12.3 3.75598V3.25598C7.46192 3.25598 3.54999 7.16791 3.54999 12.006H4.04999ZM12.3 20.256C7.73806 20.256 4.04999 16.5679 4.04999 12.006H3.54999C3.54999 16.8441 7.46192 20.756 12.3 20.756V20.256ZM12.5 20.256H12.3V20.756H12.5V20.256ZM12.6 20.256H12.5V20.756H12.6V20.256ZM12.8 20.256H12.6V20.756H12.8V20.256ZM20.65 12.006C20.65 16.4716 17.1559 20.0621 12.7889 20.2562L12.8111 20.7557C17.4441 20.5498 21.15 16.7403 21.15 12.006H20.65ZM12.7889 3.75573C17.1559 3.94982 20.65 7.54033 20.65 12.006H21.15C21.15 7.27163 17.4441 3.46214 12.8111 3.25623L12.7889 3.75573ZM16.1 11.656H19.8V11.156H16.1V11.656ZM14.2897 4.84117C15.1542 6.18592 15.7508 8.63306 15.8501 11.4149L16.3498 11.3971C16.2492 8.57891 15.6458 6.02605 14.7103 4.57079L14.2897 4.84117ZM20.0495 11.3899C19.8426 8.18396 17.5706 5.39717 14.5741 4.46722L14.4259 4.94475C17.2294 5.8148 19.3573 8.428 19.5505 11.4221L20.0495 11.3899ZM12.5249 19.1572C12.3762 19.1424 12.1626 19.0199 11.913 18.7053C11.6699 18.3989 11.4216 17.9457 11.1961 17.3544C10.7456 16.1735 10.3994 14.4775 10.3499 12.4L9.85006 12.4119C9.9006 14.5345 10.2543 16.2885 10.7289 17.5326C10.9658 18.1537 11.2363 18.6569 11.5213 19.0161C11.7999 19.3671 12.1238 19.6196 12.4751 19.6547L12.5249 19.1572ZM12.7 19.156H12.5V19.656H12.7V19.156ZM14.8501 12.3999C14.8006 14.4266 14.4546 16.0978 14.0039 17.2794C13.7783 17.8709 13.5294 18.332 13.2842 18.6526C13.0333 18.9807 12.8119 19.1287 12.651 19.1608L12.749 19.6511C13.0881 19.5833 13.4042 19.3187 13.6814 18.9563C13.9644 18.5862 14.2342 18.0786 14.4711 17.4576C14.9454 16.2142 15.2993 14.4854 15.3499 12.4121L14.8501 12.3999ZM10.1 12.656H15.1V12.156H10.1V12.656ZM12.4724 4.15751C12.1394 4.19451 11.828 4.46258 11.5605 4.8139C11.2826 5.17884 11.0098 5.68905 10.7669 6.3156C10.2803 7.57051 9.90068 9.32443 9.85006 11.3999L10.3499 11.4121C10.3993 9.38753 10.7697 7.69145 11.2331 6.49636C11.4651 5.89792 11.7174 5.43312 11.9583 5.11681C12.2095 4.78688 12.4106 4.66745 12.5276 4.65445L12.4724 4.15751ZM12.7 4.15598H12.5V4.65598H12.7V4.15598ZM15.3499 11.3999C15.2993 9.32656 14.9454 7.59777 14.4711 6.35438C14.2342 5.73336 13.9644 5.22574 13.6814 4.85568C13.4042 4.49322 13.0881 4.22865 12.749 4.16084L12.651 4.65113C12.8119 4.68331 13.0333 4.83125 13.2842 5.15941C13.5294 5.47998 13.7783 5.9411 14.0039 6.53258C14.4546 7.71419 14.8006 9.38541 14.8501 11.4121L15.3499 11.3999ZM10.1 11.656H15.1V11.156H10.1V11.656ZM10.5966 4.46067C9.55561 5.91799 8.84999 8.47583 8.84999 11.406H9.34999C9.34999 8.53614 10.0444 6.09397 11.0034 4.75129L10.5966 4.46067ZM5.14956 11.4207C5.34257 8.13946 7.75584 5.5278 10.8534 4.85021L10.7466 4.36176C7.44413 5.08416 4.85741 7.8725 4.65042 11.3913L5.14956 11.4207ZM9.09999 11.156H4.89999V11.656H9.09999V11.156ZM9.09999 12.156H4.89999V12.656H9.09999V12.156ZM10.9981 19.0536C10.5285 18.443 10.1391 17.5062 9.85532 16.3466C9.57266 15.1913 9.39937 13.8337 9.34984 12.3974L8.85014 12.4146C8.90061 13.8782 9.07732 15.2707 9.36965 16.4654C9.66091 17.6558 10.0715 18.669 10.6018 19.3584L10.9981 19.0536ZM4.65042 12.4207C4.85708 15.9339 7.43973 18.8303 10.7539 19.4517L10.8461 18.9603C7.76025 18.3817 5.3429 15.6781 5.14956 12.3913L4.65042 12.4207ZM14.7103 19.2412C15.6433 17.7898 16.35 15.2388 16.35 12.406H15.85C15.85 15.1732 15.1567 17.6222 14.2897 18.9708L14.7103 19.2412ZM19.5505 12.3904C19.3569 15.4874 17.2273 18.0943 14.4335 18.865L14.5665 19.347C17.5727 18.5177 19.8431 15.7245 20.0495 12.4216L19.5505 12.3904ZM16.1 12.656H19.8V12.156H16.1V12.656Z" fill="white"/>
</svg>
