<svg width="24" height="25" viewBox="0 0 24 25" fill="none" xmlns="http://www.w3.org/2000/svg">
<mask id="mask0" mask-type="alpha" maskUnits="userSpaceOnUse" x="0" y="0" width="24" height="25">
<path fill-rule="evenodd" clip-rule="evenodd" d="M0.00427246 0.641357H23.7711V24.6059H0.00427246V0.641357Z" fill="white"/>
</mask>
<g mask="url(#mask0)">
<path fill-rule="evenodd" clip-rule="evenodd" d="M11.3046 0.655222C4.97544 0.956333 -0.0190634 6.22738 -6.68348e-06 12.5634C0.00586794 14.4933 0.471826 16.3148 1.29377 17.9245L0.0318739 24.0496C-0.0364007 24.381 0.262489 24.6712 0.591611 24.5931L6.59355 23.1712C8.13556 23.9394 9.8675 24.3829 11.7005 24.4109C18.1696 24.5097 23.5634 19.3734 23.7652 12.9068C23.9812 5.9752 18.2603 0.323879 11.3046 0.655222ZM18.4662 19.1075C16.7085 20.8652 14.3715 21.8333 11.8855 21.8333C10.43 21.8333 9.03639 21.5066 7.74347 20.8627L6.90784 20.4463L3.22781 21.318L4.00241 17.558L3.59075 16.7514C2.9194 15.4369 2.5791 14.0156 2.5791 12.5268C2.5791 10.0409 3.54712 7.70384 5.30485 5.94611C7.0469 4.204 9.42204 3.22036 11.8858 3.22036C14.3715 3.22036 16.7085 4.18838 18.4662 5.94611C20.224 7.70384 21.192 10.0409 21.192 12.5265C21.192 14.9903 20.2083 17.3654 18.4662 19.1075Z" fill="white"/>
</g>
<path fill-rule="evenodd" clip-rule="evenodd" d="M17.6538 15.1042L15.3514 14.4432C15.049 14.3564 14.7229 14.4424 14.5024 14.667L13.9393 15.2405C13.702 15.4825 13.3418 15.5601 13.0276 15.433C11.9384 14.9922 9.64754 12.9552 9.06265 11.9366C8.89365 11.6427 8.92159 11.2753 9.12899 11.0069L9.62039 10.371C9.81296 10.122 9.85351 9.7873 9.7262 9.49931L8.7576 7.30864C8.52563 6.78394 7.85513 6.63113 7.41711 7.00166C6.77456 7.54513 6.01229 8.37095 5.91966 9.28581C5.75624 10.8989 6.44802 12.9322 9.0638 15.3737C12.0859 18.1946 14.506 18.5671 16.0819 18.1854C16.9757 17.969 17.6899 17.1012 18.1405 16.3907C18.448 15.9059 18.2051 15.2626 17.6538 15.1042Z" fill="white"/>
</svg>
